<svg width="19" height="22" viewBox="0 0 19 22" fill="none" xmlns="http://www.w3.org/2000/svg">
<path d="M14.8244 7.26294H3.664C3.41575 7.26294 3.21451 7.46418 3.21451 7.71243V17.0713C3.21451 17.3196 3.41575 17.5208 3.664 17.5208H5.65363V20.6748C5.65363 21.4066 6.24685 21.9998 6.97869 21.9998C7.71047 21.9998 8.30374 21.4066 8.30374 20.6748V17.5208H10.1571V20.6748C10.1571 21.4066 10.7503 21.9998 11.4821 21.9998C12.2139 21.9998 12.8072 21.4066 12.8072 20.6748V17.5208H14.8244C15.0727 17.5208 15.2739 17.3196 15.2739 17.0713V7.71243C15.2739 7.46418 15.0726 7.26294 14.8244 7.26294Z" fill="#C4C4C4"/>
<path d="M1.32505 7.26099C0.593274 7.26099 0 7.85421 0 8.58604V13.9679C0 14.6997 0.59322 15.2929 1.32505 15.2929C2.05683 15.2929 2.65011 14.6997 2.65011 13.9679V8.58604C2.65005 7.85426 2.05683 7.26099 1.32505 7.26099Z" fill="#C4C4C4"/>
<path d="M17.1633 7.26099C16.4315 7.26099 15.8383 7.85421 15.8383 8.58604V13.9679C15.8383 14.6997 16.4315 15.2929 17.1633 15.2929C17.8951 15.2929 18.4884 14.6997 18.4884 13.9679V8.58604C18.4884 7.85426 17.8951 7.26099 17.1633 7.26099Z" fill="#C4C4C4"/>
<path d="M3.75431 6.60686H14.7077C14.9934 6.60686 15.2066 6.34364 15.1479 6.06396C14.7856 4.33713 13.6861 2.88187 12.1943 2.04119L13.1307 0.351686C13.194 0.237302 13.1527 0.0931507 13.0383 0.0297815C12.9237 -0.0337473 12.7797 0.00773548 12.7164 0.122119L11.7729 1.82435C11.0002 1.46576 10.139 1.26548 9.231 1.26548C8.32296 1.26548 7.46178 1.46576 6.68905 1.82435L5.7456 0.122066C5.68217 0.00762898 5.53802 -0.0336409 5.42369 0.0297283C5.30931 0.0930974 5.26798 0.237249 5.33135 0.351633L6.26772 2.04114C4.77589 2.88187 3.67646 4.33707 3.31414 6.06396C3.2554 6.34364 3.46851 6.60686 3.75431 6.60686ZM12.4994 4.08897C12.4994 4.37025 12.2713 4.59832 11.99 4.59832C11.7087 4.59832 11.4807 4.3703 11.4807 4.08897C11.4807 3.8077 11.7087 3.57963 11.99 3.57963C12.2713 3.57963 12.4994 3.8077 12.4994 4.08897ZM6.47189 3.57963C6.75316 3.57963 6.98124 3.80765 6.98124 4.08897C6.98124 4.37025 6.75322 4.59832 6.47189 4.59832C6.19062 4.59832 5.96254 4.3703 5.96254 4.08897C5.96254 3.8077 6.19056 3.57963 6.47189 3.57963Z" fill="#C4C4C4"/>
</svg>
