<svg width="120" height="41" viewBox="0 0 120 41" fill="none" xmlns="http://www.w3.org/2000/svg">
<path d="M110.136 0.738411H9.53608C9.16938 0.738411 8.80708 0.738411 8.44135 0.740411C8.1352 0.742411 7.83149 0.748221 7.5224 0.753111C6.85092 0.761013 6.18101 0.820088 5.5185 0.929821C4.85693 1.04194 4.21608 1.25333 3.61762 1.55682C3.0199 1.86288 2.47375 2.26058 1.99897 2.73548C1.52171 3.20905 1.12387 3.75643 0.820754 4.35657C0.516804 4.95552 0.306044 5.59735 0.195754 6.25989C0.0844148 6.9216 0.0245022 7.59093 0.0165538 8.26189C0.00727381 8.56849 0.00629381 8.87611 0.00140381 9.18275V32.297C0.00629381 32.6075 0.00727381 32.9083 0.0165538 33.2189C0.0245046 33.8898 0.0844172 34.5591 0.195754 35.2208C0.30574 35.8837 0.516512 36.5259 0.820754 37.1251C1.12373 37.7233 1.52162 38.2685 1.99897 38.7394C2.47195 39.2164 3.01846 39.6144 3.61762 39.9181C4.21607 40.2224 4.85685 40.4351 5.5185 40.5489C6.18112 40.6578 6.85096 40.7169 7.5224 40.7257C7.83149 40.7325 8.1352 40.7364 8.44135 40.7364C8.80707 40.7384 9.1694 40.7384 9.53608 40.7384H110.136C110.496 40.7384 110.861 40.7384 111.22 40.7364C111.525 40.7364 111.837 40.7325 112.142 40.7257C112.812 40.7173 113.481 40.6582 114.142 40.5489C114.806 40.4343 115.449 40.2217 116.05 39.9181C116.649 39.6142 117.195 39.2163 117.667 38.7394C118.144 38.2666 118.542 37.7219 118.849 37.1251C119.151 36.5255 119.36 35.8834 119.468 35.2208C119.58 34.559 119.642 33.8899 119.654 33.2189C119.658 32.9083 119.658 32.6075 119.658 32.297C119.665 31.9337 119.665 31.5724 119.665 31.2032V10.2745C119.665 9.90833 119.665 9.54505 119.658 9.18275C119.658 8.87611 119.658 8.56849 119.654 8.26185C119.642 7.59083 119.58 6.92165 119.468 6.25985C119.359 5.59769 119.151 4.95591 118.849 4.35653C118.232 3.15361 117.253 2.17444 116.05 1.55673C115.449 1.25398 114.806 1.04265 114.142 0.929731C113.481 0.819514 112.812 0.760419 112.142 0.752971C111.837 0.748091 111.525 0.742231 111.22 0.740281C110.861 0.738281 110.496 0.738281 110.136 0.738281V0.738411Z" fill="#A6A6A6"/>
<path d="M8.44624 39.8635C8.14156 39.8635 7.84424 39.8596 7.54195 39.8528C6.91573 39.8447 6.29098 39.7901 5.67281 39.6897C5.0964 39.5905 4.53801 39.4058 4.01607 39.1418C3.49891 38.8801 3.02722 38.5368 2.61907 38.1252C2.20501 37.7185 1.86029 37.2468 1.59856 36.7287C1.33395 36.2073 1.15082 35.6484 1.05556 35.0715C0.952685 34.4516 0.897025 33.8248 0.88906 33.1965C0.88272 32.9856 0.87442 32.2834 0.87442 32.2834V9.18287C0.87442 9.18287 0.88326 8.49146 0.88911 8.28833C0.896736 7.66101 0.952072 7.03518 1.05464 6.41626C1.15008 5.83778 1.33335 5.27727 1.5981 4.75416C1.85887 4.23647 2.20167 3.76439 2.61324 3.35621C3.02434 2.94415 3.49754 2.59913 4.01558 2.33374C4.53632 2.07062 5.09366 1.88726 5.6689 1.7898C6.2891 1.68836 6.91602 1.63352 7.54441 1.62574L8.44673 1.61353H111.215L112.128 1.62623C112.751 1.63362 113.372 1.68798 113.987 1.78882C114.568 1.8875 115.131 2.07214 115.658 2.33667C116.696 2.87151 117.54 3.71769 118.073 4.7566C118.333 5.2761 118.514 5.83203 118.608 6.40552C118.712 7.02952 118.77 7.66026 118.782 8.29273C118.785 8.57593 118.785 8.88013 118.785 9.18287C118.792 9.55787 118.792 9.91479 118.792 10.2747V31.2033C118.792 31.5666 118.792 31.9211 118.785 32.2785C118.785 32.6037 118.785 32.9016 118.781 33.2082C118.769 33.8294 118.712 34.4489 118.61 35.0617C118.516 35.6428 118.334 36.206 118.07 36.7317C117.806 37.2441 117.463 37.7118 117.054 38.1174C116.646 38.5312 116.173 38.8765 115.655 39.1399C115.13 39.4059 114.567 39.5913 113.987 39.6897C113.369 39.7907 112.744 39.8452 112.118 39.8528C111.825 39.8596 111.518 39.8635 111.22 39.8635L110.136 39.8655L8.44624 39.8635Z" fill="black"/>
<path d="M24.7703 21.0391C24.781 20.2044 25.0027 19.3861 25.4148 18.6601C25.8268 17.9342 26.4158 17.3242 27.1269 16.887C26.6751 16.2419 26.0792 15.7109 25.3863 15.3364C24.6935 14.9618 23.9229 14.754 23.1357 14.7294C21.4564 14.5531 19.8285 15.7342 18.9728 15.7342C18.1005 15.7342 16.783 14.7469 15.3643 14.776C14.4466 14.8057 13.5523 15.0726 12.7684 15.5506C11.9845 16.0287 11.3378 16.7016 10.8914 17.5039C8.95737 20.8523 10.4 25.7734 12.2526 28.48C13.1795 29.8053 14.2627 31.2858 15.6802 31.2333C17.0673 31.1758 17.5853 30.3488 19.2596 30.3488C20.9184 30.3488 21.4044 31.2333 22.8506 31.1999C24.339 31.1758 25.2767 29.8687 26.1711 28.5308C26.8371 27.5864 27.3496 26.5427 27.6895 25.4383C26.8248 25.0725 26.0869 24.4604 25.5678 23.6781C25.0487 22.8958 24.7713 21.978 24.7703 21.0391Z" fill="white"/>
<path d="M22.0387 12.9494C22.8502 11.9752 23.25 10.723 23.1532 9.45874C21.9133 9.58896 20.7681 10.1815 19.9456 11.1184C19.5435 11.576 19.2355 12.1085 19.0392 12.6852C18.843 13.262 18.7623 13.8718 18.8019 14.4797C19.422 14.4861 20.0355 14.3517 20.5962 14.0866C21.1569 13.8215 21.6501 13.4327 22.0387 12.9494Z" fill="white"/>
<path d="M42.3037 27.8782H37.5703L36.4336 31.2346H34.4287L38.9121 18.8167H40.9951L45.4785 31.2346H43.4394L42.3037 27.8782ZM38.0605 26.3294H41.8125L39.9629 20.8821H39.9111L38.0605 26.3294Z" fill="white"/>
<path d="M55.1611 26.7082C55.1611 29.5217 53.6552 31.3293 51.3828 31.3293C50.8071 31.3594 50.2346 31.2268 49.7308 30.9467C49.227 30.6665 48.8123 30.2502 48.5342 29.7453H48.4911V34.2297H46.6328V22.1809H48.4316V23.6867H48.4658C48.7567 23.1843 49.1785 22.7701 49.6861 22.4882C50.1937 22.2064 50.7683 22.0674 51.3486 22.0861C53.6464 22.0862 55.1611 23.9026 55.1611 26.7082ZM53.2509 26.7082C53.2509 24.8752 52.3037 23.6701 50.8584 23.6701C49.4384 23.6701 48.4834 24.9006 48.4834 26.7082C48.4834 28.5324 49.4384 29.7541 50.8584 29.7541C52.3037 29.7541 53.2509 28.5578 53.2509 26.7082Z" fill="white"/>
<path d="M65.1259 26.7082C65.1259 29.5217 63.6201 31.3293 61.3476 31.3293C60.772 31.3594 60.1995 31.2268 59.6957 30.9467C59.1919 30.6665 58.7772 30.2502 58.499 29.7453H58.456V34.2297H56.5976V22.1809H58.3964V23.6867H58.4306C58.7216 23.1843 59.1433 22.7701 59.6509 22.4882C60.1585 22.2064 60.7331 22.0674 61.3134 22.0861C63.6113 22.0861 65.1259 23.9025 65.1259 26.7082ZM63.2158 26.7082C63.2158 24.8752 62.2685 23.6701 60.8232 23.6701C59.4033 23.6701 58.4482 24.9006 58.4482 26.7082C58.4482 28.5324 59.4033 29.7541 60.8232 29.7541C62.2685 29.7541 63.2158 28.5578 63.2158 26.7082H63.2158Z" fill="white"/>
<path d="M71.7119 27.7747C71.8496 29.0062 73.0459 29.8147 74.6806 29.8147C76.247 29.8147 77.374 29.0061 77.374 27.8958C77.374 26.9319 76.6943 26.3548 75.0849 25.9592L73.4756 25.5715C71.1953 25.0208 70.1367 23.9543 70.1367 22.2239C70.1367 20.0813 72.0039 18.6096 74.6552 18.6096C77.2792 18.6096 79.0781 20.0813 79.1386 22.2239H77.2626C77.1503 20.9846 76.1259 20.2366 74.6289 20.2366C73.1318 20.2366 72.1074 20.9934 72.1074 22.095C72.1074 22.9729 72.7617 23.4895 74.3623 23.885L75.7304 24.2209C78.2783 24.8235 79.3369 25.8469 79.3369 27.6633C79.3369 29.9865 77.4863 31.4416 74.5429 31.4416C71.789 31.4416 69.9296 30.0207 69.8095 27.7746L71.7119 27.7747Z" fill="white"/>
<path d="M83.3476 20.0383V22.1809H85.0693V23.6526H83.3476V28.6438C83.3476 29.4192 83.6924 29.7805 84.4492 29.7805C84.6536 29.777 84.8576 29.7626 85.0605 29.7375V31.2004C84.7202 31.264 84.3744 31.2928 84.0283 31.2863C82.1953 31.2863 81.4804 30.5979 81.4804 28.842V23.6526H80.164V22.1809H81.4804V20.0383H83.3476Z" fill="white"/>
<path d="M86.0664 26.7083C86.0664 23.8596 87.7441 22.0696 90.3604 22.0696C92.9854 22.0696 94.6553 23.8596 94.6553 26.7083C94.6553 29.5647 92.9941 31.3469 90.3604 31.3469C87.7275 31.3469 86.0664 29.5647 86.0664 26.7083ZM92.7617 26.7083C92.7617 24.7541 91.8662 23.6008 90.3603 23.6008C88.8545 23.6008 87.96 24.7629 87.96 26.7083C87.96 28.6702 88.8545 29.8147 90.3603 29.8147C91.8662 29.8147 92.7617 28.6702 92.7617 26.7083H92.7617Z" fill="white"/>
<path d="M96.1875 22.181H97.9599V23.722H98.0029C98.1229 23.2407 98.4048 22.8154 98.8014 22.5175C99.198 22.2196 99.685 22.0674 100.181 22.0863C100.395 22.0855 100.608 22.1088 100.817 22.1556V23.8939C100.547 23.8113 100.265 23.7734 99.9824 23.7816C99.7124 23.7707 99.4433 23.8183 99.1934 23.9211C98.9436 24.024 98.719 24.1798 98.535 24.3777C98.351 24.5755 98.212 24.8109 98.1276 25.0676C98.0432 25.3242 98.0153 25.5961 98.0459 25.8646V31.2347H96.1875L96.1875 22.181Z" fill="white"/>
<path d="M109.386 28.5754C109.136 30.219 107.535 31.3469 105.487 31.3469C102.853 31.3469 101.219 29.5823 101.219 26.7512C101.219 23.9114 102.862 22.0696 105.409 22.0696C107.914 22.0696 109.489 23.7903 109.489 26.5354V27.1721H103.095V27.2844C103.065 27.6176 103.107 27.9533 103.217 28.2691C103.327 28.585 103.503 28.8738 103.734 29.1163C103.964 29.3588 104.243 29.5496 104.553 29.6759C104.863 29.8022 105.196 29.8612 105.53 29.8489C105.969 29.89 106.41 29.7883 106.787 29.5589C107.164 29.3294 107.456 28.9845 107.621 28.5754L109.386 28.5754ZM103.103 25.8733H107.63C107.647 25.5737 107.601 25.2739 107.496 24.9927C107.392 24.7115 107.23 24.4549 107.022 24.2392C106.813 24.0234 106.562 23.8531 106.285 23.7388C106.007 23.6246 105.709 23.569 105.409 23.5754C105.107 23.5736 104.807 23.6318 104.526 23.7465C104.246 23.8613 103.992 24.0303 103.778 24.244C103.563 24.4576 103.393 24.7116 103.278 24.9912C103.162 25.2709 103.103 25.5707 103.103 25.8733V25.8733Z" fill="white"/>
<path d="M36.7397 11.9919H37.5376C37.6749 12.009 37.8143 11.9975 37.947 11.958C38.0796 11.9186 38.2027 11.8521 38.3084 11.7627C38.4141 11.6734 38.5001 11.5631 38.5611 11.4388C38.622 11.3146 38.6566 11.179 38.6626 11.0407C38.6626 10.4905 38.2485 10.135 37.5463 10.135C37.4056 10.1153 37.2624 10.1241 37.1251 10.1607C36.9878 10.1973 36.8593 10.261 36.747 10.3481C36.6348 10.4352 36.5412 10.544 36.4716 10.6679C36.4021 10.7918 36.3581 10.9284 36.3422 11.0696H35.4662C35.4813 10.8133 35.549 10.5628 35.6651 10.3338C35.7811 10.1048 35.9431 9.90212 36.1409 9.73841C36.3387 9.57471 36.568 9.45347 36.8147 9.38225C37.0614 9.31103 37.32 9.29135 37.5746 9.32444C38.7494 9.32444 39.5766 9.98215 39.5766 10.9289C39.5794 11.2461 39.4733 11.5546 39.276 11.803C39.0787 12.0514 38.8022 12.2246 38.4926 12.2937V12.364C38.8596 12.3803 39.2053 12.5412 39.454 12.8116C39.7027 13.0819 39.8342 13.4398 39.8198 13.8069C39.7926 14.0707 39.7131 14.3266 39.5858 14.5593C39.4585 14.792 39.286 14.997 39.0784 15.1623C38.8709 15.3275 38.6324 15.4496 38.377 15.5215C38.1217 15.5933 37.8545 15.6135 37.5913 15.5808C37.3275 15.6168 37.0591 15.5992 36.8022 15.5293C36.5453 15.4593 36.3051 15.3383 36.096 15.1736C35.8868 15.0088 35.713 14.8036 35.5849 14.5702C35.4567 14.3369 35.3769 14.0801 35.3501 13.8152H36.2397C36.2934 14.386 36.8178 14.7542 37.5913 14.7542C38.3647 14.7542 38.8696 14.3406 38.8696 13.7576C38.8696 13.1663 38.394 12.802 37.563 12.802H36.7397V11.9919Z" fill="white"/>
<path d="M40.8305 14.1628C40.8305 13.3523 41.435 12.885 42.5053 12.8186L43.7251 12.7483V12.3596C43.7251 11.884 43.4116 11.6155 42.8032 11.6155C42.3071 11.6155 41.9643 11.7976 41.8647 12.116H41.0044C41.0952 11.3425 41.8237 10.8464 42.8452 10.8464C43.9741 10.8464 44.6108 11.4084 44.6108 12.3596V15.4363H43.7544V14.8035H43.6841C43.5413 15.0305 43.3409 15.2155 43.1033 15.3397C42.8657 15.4639 42.5994 15.5229 42.3315 15.5105C42.1425 15.5301 41.9514 15.51 41.7707 15.4513C41.5899 15.3926 41.4234 15.2966 41.282 15.1697C41.1406 15.0427 41.0274 14.8875 40.9496 14.7141C40.8718 14.5407 40.8313 14.3529 40.8305 14.1628ZM43.7251 13.7781V13.4016L42.6254 13.4719C42.0053 13.5134 41.724 13.7244 41.724 14.1213C41.724 14.5266 42.0756 14.7624 42.559 14.7624C42.7007 14.7768 42.8438 14.7625 42.9798 14.7204C43.1158 14.6783 43.242 14.6093 43.3507 14.5174C43.4595 14.4256 43.5487 14.3128 43.613 14.1858C43.6773 14.0588 43.7154 13.9201 43.7251 13.7781Z" fill="white"/>
<path d="M46.9692 11.6814V15.4363H46.0805V10.9333H49.0454V11.6813L46.9692 11.6814Z" fill="white"/>
<path d="M54.4311 13.1828C54.4311 14.6135 53.7075 15.5105 52.5708 15.5105C52.2917 15.5295 52.0131 15.4685 51.7676 15.3345C51.5221 15.2005 51.32 14.9991 51.185 14.7541H51.1147V16.9333H50.226V10.9333H51.0815V11.6775H51.1479C51.2853 11.4239 51.49 11.2133 51.7395 11.0688C51.9891 10.9243 52.2737 10.8515 52.562 10.8586C53.7075 10.8586 54.4311 11.7517 54.4311 13.1828ZM53.5171 13.1828C53.5171 12.2316 53.0669 11.6569 52.3139 11.6569C51.5659 11.6569 51.0981 12.2438 51.0981 13.1867C51.0981 14.1252 51.5659 14.7126 52.31 14.7126C53.0669 14.7126 53.5171 14.1379 53.5171 13.1828Z" fill="white"/>
<path d="M55.6147 17.0491V16.2839C55.7109 16.2962 55.8078 16.3017 55.9047 16.3005C56.094 16.3146 56.2819 16.2582 56.4322 16.1422C56.5825 16.0262 56.6847 15.8588 56.7192 15.6721L56.7856 15.4529L55.1557 10.9333H56.1235L57.2524 14.51H57.3227L58.4477 10.9333H59.3901L57.7114 15.6223C57.3266 16.718 56.9009 17.0696 55.9829 17.0696C55.9087 17.0696 55.6977 17.0613 55.6147 17.0491Z" fill="white"/>
<path d="M60.0825 14.1583H60.9672C61.0542 14.5553 61.4262 14.7623 61.9467 14.7623C62.5385 14.7623 62.9018 14.5016 62.9018 14.0963C62.9018 13.6622 62.5756 13.4552 61.9467 13.4552H61.2729V12.7648H61.935C62.4721 12.7648 62.7456 12.5582 62.7456 12.1818C62.7456 11.8512 62.4809 11.5988 61.935 11.5988C61.4379 11.5988 61.0747 11.8097 61.017 12.1652H60.1606C60.2246 11.7567 60.4464 11.3897 60.7782 11.1431C61.1101 10.8964 61.5254 10.7899 61.935 10.8463C63.0053 10.8463 63.6176 11.3302 63.6176 12.091C63.6226 12.3028 63.5548 12.5099 63.4253 12.6777C63.2959 12.8455 63.1129 12.9638 62.9067 13.0128V13.0831C63.1521 13.1148 63.3774 13.2355 63.5398 13.4222C63.7022 13.609 63.7903 13.8489 63.7876 14.0963C63.7876 14.9523 63.059 15.5187 61.9467 15.5187C60.9633 15.5187 60.1645 15.068 60.0825 14.1583Z" fill="white"/>
<path d="M65.0674 15.4363V10.9333H65.9482V14.0305H66.0185L68.0937 10.9334H68.9746V15.4363H68.0937V12.3225H68.0273L65.9482 15.4363L65.0674 15.4363Z" fill="white"/>
<path d="M73.8271 11.6813H72.4091V15.4362H71.5195V11.6813H70.1015V10.9333H73.8271V11.6813Z" fill="white"/>
<path d="M78.6142 14.2205C78.4931 14.6321 78.2313 14.988 77.8745 15.2261C77.5177 15.4642 77.0886 15.5694 76.6621 15.5233C76.3654 15.5311 76.0706 15.4743 75.7981 15.3568C75.5256 15.2392 75.2819 15.0638 75.084 14.8427C74.8861 14.6215 74.7387 14.36 74.652 14.0761C74.5653 13.7923 74.5414 13.493 74.582 13.1991C74.5425 12.9042 74.5668 12.6042 74.6533 12.3196C74.7398 12.0349 74.8864 11.7721 75.0833 11.549C75.2802 11.326 75.5226 11.1478 75.7944 11.0266C76.0661 10.9054 76.3607 10.844 76.6582 10.8465C77.9111 10.8465 78.6679 11.7025 78.6679 13.1165V13.4266H75.4883V13.4764C75.4742 13.6417 75.4948 13.8081 75.5489 13.9649C75.603 14.1217 75.6892 14.2655 75.8022 14.387C75.9151 14.5085 76.0522 14.605 76.2047 14.6704C76.3572 14.7357 76.5216 14.7684 76.6875 14.7664C76.8999 14.7918 77.1151 14.7535 77.3057 14.6563C77.4962 14.5591 77.6536 14.4074 77.7578 14.2205L78.6142 14.2205ZM75.4882 12.7694H77.7617C77.7729 12.6183 77.7524 12.4666 77.7015 12.3239C77.6506 12.1813 77.5705 12.0508 77.4662 11.941C77.3619 11.8311 77.2358 11.7443 77.096 11.6861C76.9561 11.6278 76.8057 11.5995 76.6542 11.6029C76.5005 11.6008 76.3479 11.6295 76.2055 11.6874C76.063 11.7453 75.9336 11.8312 75.8249 11.9399C75.7162 12.0486 75.6304 12.1781 75.5726 12.3205C75.5148 12.463 75.4861 12.6156 75.4883 12.7694H75.4882Z" fill="white"/>
<path d="M82.3818 10.9333H84.4121C85.2929 10.9333 85.8095 11.3796 85.8095 12.0783C85.8109 12.3001 85.7361 12.5155 85.5976 12.6887C85.4591 12.8618 85.2654 12.9821 85.0488 13.0295V13.0998C85.3118 13.1164 85.5583 13.2334 85.7375 13.4266C85.9167 13.6198 86.0149 13.8744 86.0117 14.1379C86.0117 14.9236 85.4209 15.4363 84.4326 15.4363H82.3818V10.9333ZM83.2627 11.6155V12.7815H84.1435C84.6806 12.7815 84.9375 12.5749 84.9375 12.1941C84.9375 11.843 84.7139 11.6155 84.2422 11.6155L83.2627 11.6155ZM83.2627 13.4348V14.7542H84.3164C84.8418 14.7542 85.1231 14.5222 85.1231 14.0964C85.1231 13.6458 84.8047 13.4348 84.2051 13.4348L83.2627 13.4348Z" fill="white"/>
</svg>
