<svg width="208" height="70" viewBox="0 0 208 70" fill="none" xmlns="http://www.w3.org/2000/svg">
<path d="M15.5412 68.0179C15.0142 68.0179 14.4999 68.0111 13.977 67.9994C12.8937 67.9853 11.813 67.8913 10.7436 67.7181C9.74654 67.5468 8.78062 67.2283 7.87774 66.7729C6.98313 66.3214 6.16718 65.7293 5.46115 65.0193C4.74489 64.3177 4.14857 63.504 3.69582 62.6103C3.23809 61.7109 2.92131 60.7468 2.75652 59.7517C2.57856 58.6824 2.48228 57.6011 2.4685 56.5173C2.45753 56.1535 2.44318 54.9422 2.44318 54.9422V15.0937C2.44318 15.0937 2.45847 13.901 2.46859 13.5507C2.48178 12.4685 2.5775 11.389 2.75493 10.3213C2.92002 9.32345 3.23705 8.35659 3.69503 7.45421C4.14611 6.5612 4.73912 5.74686 5.45106 5.04274C6.1622 4.33194 6.98076 3.73679 7.87689 3.27898C8.7777 2.82511 9.74179 2.50881 10.7369 2.34069C11.8097 2.16571 12.8942 2.07111 13.9812 2.05768L15.5421 2.03662H193.315L194.895 2.05853C195.972 2.07129 197.047 2.16505 198.11 2.339C199.115 2.50923 200.089 2.82773 201 3.28404C202.795 4.20665 204.256 5.6663 205.178 7.45842C205.628 8.35457 205.941 9.31354 206.104 10.3028C206.283 11.3792 206.384 12.4672 206.404 13.5582C206.409 14.0468 206.409 14.5715 206.409 15.0937C206.423 15.7406 206.423 16.3563 206.423 16.9771V53.079C206.423 53.7057 206.423 54.3172 206.409 54.9337C206.409 55.4947 206.409 56.0086 206.402 56.5375C206.382 57.609 206.283 58.6776 206.107 59.7348C205.945 60.7371 205.63 61.7087 205.173 62.6155C204.717 63.4994 204.124 64.3061 203.416 65.0058C202.709 65.7196 201.892 66.3152 200.995 66.7697C200.087 67.2285 199.114 67.5482 198.11 67.7181C197.04 67.8922 195.96 67.9863 194.876 67.9994C194.37 68.0111 193.839 68.0179 193.324 68.0179L191.449 68.0213L15.5412 68.0179Z" fill="black"/>
<path d="M43.7793 35.5459C43.7979 34.1061 44.1814 32.6944 44.8941 31.4421C45.6069 30.1898 46.6257 29.1377 47.8558 28.3835C47.0743 27.2706 46.0434 26.3548 44.8449 25.7087C43.6465 25.0626 42.3134 24.704 40.9517 24.6616C38.0469 24.3575 35.2308 26.3949 33.7505 26.3949C32.2416 26.3949 29.9626 24.6917 27.5084 24.7421C25.9209 24.7932 24.3739 25.2536 23.0179 26.0782C21.6619 26.9029 20.5432 28.0637 19.7709 29.4477C16.4254 35.2237 18.9209 43.7125 22.1256 48.3814C23.729 50.6676 25.6029 53.2214 28.0548 53.1308C30.4542 53.0316 31.3504 51.6051 34.2466 51.6051C37.116 51.6051 37.9568 53.1308 40.4585 53.0733C43.0332 53.0316 44.6553 50.7769 46.2025 48.469C47.3545 46.84 48.241 45.0396 48.8291 43.1344C47.3333 42.5035 46.0568 41.4475 45.1588 40.0981C44.2608 38.7486 43.781 37.1654 43.7793 35.5459Z" fill="white"/>
<path d="M39.054 21.5911C40.4578 19.9106 41.1494 17.7506 40.9819 15.5698C38.8372 15.7945 36.8561 16.8166 35.4333 18.4327C34.7377 19.2221 34.2049 20.1406 33.8654 21.1355C33.5259 22.1304 33.3864 23.1823 33.4549 24.231C34.5276 24.2421 35.5889 24.0102 36.5587 23.5529C37.5286 23.0956 38.3817 22.4249 39.054 21.5911Z" fill="white"/>
<path d="M74.1093 47.3431H65.9212L63.9549 53.133H60.4868L68.2423 31.7119H71.8456L79.6012 53.133H76.0739L74.1093 47.3431ZM66.7693 44.6714H73.2596L70.0601 35.2748H69.9705L66.7693 44.6714Z" fill="white"/>
<path d="M96.3506 45.3251C96.3506 50.1783 93.7457 53.2965 89.8147 53.2965C88.8189 53.3484 87.8286 53.1197 86.9571 52.6364C86.0856 52.1532 85.3682 51.435 84.887 50.5641H84.8126V58.2996H81.5979V37.5154H84.7096V40.113H84.7687C85.272 39.2463 86.0016 38.5318 86.8797 38.0456C87.7578 37.5594 88.7517 37.3197 89.7556 37.352C93.7304 37.352 96.3506 40.4853 96.3506 45.3251ZM93.0463 45.3251C93.0463 42.1632 91.4077 40.0844 88.9075 40.0844C86.4513 40.0844 84.7991 42.2069 84.7991 45.3251C84.7991 48.4719 86.4513 50.5793 88.9075 50.5793C91.4077 50.5793 93.0463 48.5157 93.0463 45.3251Z" fill="white"/>
<path d="M113.588 45.3251C113.588 50.1783 110.983 53.2965 107.052 53.2965C106.056 53.3484 105.066 53.1197 104.195 52.6364C103.323 52.1532 102.606 51.435 102.125 50.5641H102.05V58.2996H98.8355V37.5154H101.947V40.113H102.006C102.51 39.2463 103.239 38.5318 104.117 38.0456C104.995 37.5594 105.989 37.3197 106.993 37.352C110.968 37.352 113.588 40.4853 113.588 45.3251ZM110.284 45.3251C110.284 42.1631 108.645 40.0844 106.145 40.0844C103.689 40.0844 102.037 42.2069 102.037 45.3251C102.037 48.4719 103.689 50.5792 106.145 50.5792C108.645 50.5792 110.284 48.5156 110.284 45.3251H110.284Z" fill="white"/>
<path d="M124.981 47.1645C125.219 49.2888 127.288 50.6835 130.116 50.6835C132.826 50.6835 134.775 49.2887 134.775 47.3733C134.775 45.7107 133.6 44.7151 130.816 44.0328L128.032 43.364C124.087 42.414 122.256 40.5744 122.256 37.5893C122.256 33.8934 125.486 31.3547 130.072 31.3547C134.611 31.3547 137.723 33.8934 137.828 37.5893H134.583C134.389 35.4516 132.616 34.1612 130.027 34.1612C127.437 34.1612 125.665 35.4668 125.665 37.367C125.665 38.8814 126.797 39.7725 129.566 40.4547L131.932 41.0342C136.34 42.0736 138.171 43.8391 138.171 46.9723C138.171 50.9799 134.97 53.4899 129.878 53.4899C125.114 53.4899 121.898 51.0389 121.69 47.1644L124.981 47.1645Z" fill="white"/>
<path d="M145.109 33.8193V37.5153H148.087V40.0539H145.109V48.6638C145.109 50.0013 145.705 50.6246 147.014 50.6246C147.368 50.6185 147.721 50.5937 148.072 50.5504V53.0739C147.483 53.1836 146.885 53.2333 146.286 53.2222C143.115 53.2222 141.879 52.0345 141.879 49.0057V40.0539H139.602V37.5153H141.879V33.8193H145.109Z" fill="white"/>
<path d="M149.812 45.3249C149.812 40.4111 152.714 37.3232 157.24 37.3232C161.781 37.3232 164.669 40.411 164.669 45.3249C164.669 50.2523 161.796 53.3267 157.24 53.3267C152.685 53.3267 149.812 50.2523 149.812 45.3249ZM161.394 45.3249C161.394 41.9541 159.845 39.9646 157.24 39.9646C154.635 39.9646 153.087 41.9693 153.087 45.3249C153.087 48.7092 154.635 50.6836 157.24 50.6836C159.845 50.6836 161.394 48.7092 161.394 45.3249H161.394Z" fill="white"/>
<path d="M167.32 37.5153H170.386V40.1735H170.46C170.668 39.3433 171.155 38.6096 171.841 38.0957C172.527 37.5819 173.37 37.3192 174.227 37.3518C174.598 37.3505 174.967 37.3907 175.329 37.4714V40.47C174.861 40.3275 174.373 40.262 173.884 40.2763C173.417 40.2574 172.952 40.3395 172.52 40.517C172.087 40.6944 171.699 40.9631 171.381 41.3044C171.062 41.6458 170.822 42.0518 170.676 42.4946C170.53 42.9373 170.482 43.4063 170.534 43.8694V53.1329H167.32L167.32 37.5153Z" fill="white"/>
<path d="M190.151 48.5458C189.718 51.381 186.949 53.3267 183.407 53.3267C178.851 53.3267 176.023 50.2826 176.023 45.3991C176.023 40.5003 178.866 37.3232 183.272 37.3232C187.605 37.3232 190.33 40.2914 190.33 45.0268V46.1251H179.268V46.3188C179.217 46.8936 179.289 47.4726 179.48 48.0175C179.67 48.5623 179.975 49.0604 180.374 49.4788C180.772 49.8972 181.255 50.2263 181.791 50.4442C182.327 50.662 182.903 50.7637 183.481 50.7425C184.241 50.8135 185.003 50.638 185.655 50.2423C186.307 49.8465 186.813 49.2515 187.098 48.5458L190.151 48.5458ZM179.283 43.8846H187.113C187.142 43.3678 187.064 42.8507 186.882 42.3656C186.701 41.8805 186.422 41.438 186.061 41.0658C185.7 40.6936 185.266 40.3997 184.786 40.2027C184.306 40.0057 183.791 39.9097 183.272 39.9208C182.748 39.9177 182.229 40.018 181.745 40.216C181.261 40.4139 180.82 40.7055 180.449 41.0741C180.079 41.4426 179.785 41.8807 179.585 42.3631C179.384 42.8455 179.282 43.3626 179.283 43.8847V43.8846Z" fill="white"/>
<path d="M64.4845 19.9393H65.8646C66.1022 19.9688 66.3434 19.949 66.5729 19.8809C66.8024 19.8129 67.0152 19.6982 67.1981 19.544C67.3809 19.3899 67.5297 19.1996 67.6352 18.9853C67.7406 18.7709 67.8004 18.5371 67.8107 18.2986C67.8107 17.3493 67.0945 16.7361 65.8798 16.7361C65.6364 16.7022 65.3887 16.7173 65.1512 16.7804C64.9137 16.8436 64.6913 16.9535 64.4972 17.1038C64.303 17.2541 64.141 17.4416 64.0208 17.6554C63.9005 17.8691 63.8244 18.1047 63.7969 18.3483H62.2816C62.3077 17.9062 62.4248 17.4741 62.6255 17.0791C62.8263 16.684 63.1065 16.3344 63.4486 16.052C63.7907 15.7697 64.1875 15.5605 64.6142 15.4377C65.0409 15.3148 65.4884 15.2809 65.9288 15.3379C67.961 15.3379 69.3919 16.4725 69.3919 18.1057C69.3967 18.6528 69.2131 19.185 68.8719 19.6135C68.5306 20.0419 68.0523 20.3407 67.5168 20.4599V20.5812C68.1516 20.6092 68.7495 20.8868 69.1797 21.3532C69.6099 21.8196 69.8374 22.4369 69.8126 23.0701C69.7656 23.5253 69.6279 23.9666 69.4077 24.3681C69.1875 24.7696 68.8891 25.1232 68.5301 25.4082C68.171 25.6932 67.7586 25.9038 67.3168 26.0278C66.8751 26.1518 66.413 26.1866 65.9576 26.1301C65.5012 26.1922 65.037 26.162 64.5926 26.0413C64.1482 25.9206 63.7328 25.7119 63.371 25.4277C63.0092 25.1435 62.7085 24.7895 62.4868 24.387C62.2651 23.9844 62.127 23.5414 62.0806 23.0844H63.6196C63.7125 24.0691 64.6197 24.7042 65.9576 24.7042C67.2955 24.7042 68.1689 23.9908 68.1689 22.9851C68.1689 21.9651 67.3462 21.3368 65.9086 21.3368H64.4845V19.9393Z" fill="white"/>
<path d="M71.561 23.6842C71.561 22.286 72.6066 21.4799 74.4581 21.3654L76.5681 21.2441V20.5736C76.5681 19.7532 76.0258 19.29 74.9734 19.29C74.1152 19.29 73.5223 19.6041 73.3499 20.1533H71.8617C72.0188 18.8191 73.279 17.9634 75.046 17.9634C76.9988 17.9634 78.1003 18.9328 78.1003 20.5736V25.8809H76.6187V24.7893H76.4971C76.2502 25.1808 75.9036 25.5 75.4925 25.7143C75.0815 25.9286 74.6208 26.0302 74.1574 26.0088C73.8304 26.0427 73.4999 26.008 73.1872 25.9067C72.8746 25.8054 72.5866 25.64 72.342 25.421C72.0974 25.2019 71.9015 24.9342 71.7669 24.6351C71.6324 24.3359 71.5623 24.012 71.561 23.6842ZM76.5681 23.0204V22.371L74.6658 22.4923C73.5931 22.5639 73.1066 22.9278 73.1066 23.6126C73.1066 24.3117 73.7147 24.7185 74.551 24.7185C74.7961 24.7432 75.0436 24.7186 75.2788 24.646C75.5141 24.5734 75.7323 24.4543 75.9205 24.2959C76.1087 24.1374 76.263 23.9429 76.3743 23.7238C76.4855 23.5047 76.5514 23.2655 76.5681 23.0204Z" fill="white"/>
<path d="M82.1799 19.4037V25.8808H80.6426V18.1133H85.7714V19.4036L82.1799 19.4037Z" fill="white"/>
<path d="M95.0878 21.9937C95.0878 24.4616 93.8361 26.0089 91.8697 26.0089C91.387 26.0417 90.905 25.9364 90.4803 25.7053C90.0556 25.4741 89.706 25.1268 89.4726 24.7042H89.351V28.4633H87.8137V18.1133H89.2936V19.397H89.4084C89.646 18.9596 90.0002 18.5962 90.4318 18.3469C90.8635 18.0977 91.3559 17.9722 91.8545 17.9845C93.8361 17.9844 95.0878 19.5249 95.0878 21.9937ZM93.5067 21.9937C93.5067 20.3529 92.7279 19.3615 91.4255 19.3615C90.1315 19.3615 89.3223 20.374 89.3223 22.0004C89.3223 23.6193 90.1315 24.6326 91.4187 24.6326C92.7279 24.6326 93.5067 23.6412 93.5067 21.9937Z" fill="white"/>
<path d="M97.1352 28.6629V27.3431C97.3016 27.3641 97.4692 27.3737 97.6369 27.3717C97.9644 27.3959 98.2894 27.2986 98.5494 27.0985C98.8094 26.8985 98.9862 26.6097 99.0458 26.2877L99.1607 25.9095L96.3412 18.1133H98.0153L99.9682 24.283H100.09L102.036 18.1133H103.666L100.762 26.2018C100.097 28.0918 99.3601 28.6983 97.7721 28.6983C97.6437 28.6983 97.2788 28.684 97.1352 28.6629Z" fill="white"/>
<path d="M104.864 23.6767H106.394C106.545 24.3615 107.188 24.7186 108.089 24.7186C109.112 24.7186 109.741 24.2688 109.741 23.5697C109.741 22.8209 109.177 22.4638 108.089 22.4638H106.923V21.2728H108.068C108.997 21.2728 109.47 20.9165 109.47 20.2671C109.47 19.6969 109.013 19.2614 108.068 19.2614C107.209 19.2614 106.58 19.6253 106.48 20.2385H104.999C105.11 19.5339 105.493 18.9008 106.067 18.4754C106.641 18.0499 107.36 17.8661 108.068 17.9635C109.92 17.9635 110.979 18.7982 110.979 20.1105C110.988 20.4759 110.87 20.8332 110.646 21.1227C110.423 21.4121 110.106 21.6162 109.749 21.7007V21.822C110.174 21.8766 110.564 22.0848 110.844 22.4069C111.125 22.7291 111.278 23.1429 111.273 23.5697C111.273 25.0463 110.013 26.0233 108.089 26.0233C106.388 26.0233 105.006 25.2458 104.864 23.6767Z" fill="white"/>
<path d="M113.487 25.8808V18.1133H115.011V23.4559H115.132L118.722 18.1133H120.246V25.8809H118.722V20.5096H118.607L115.011 25.8809L113.487 25.8808Z" fill="white"/>
<path d="M128.64 19.4036H126.187V25.8808H124.648V19.4036H122.195V18.1133H128.64V19.4036Z" fill="white"/>
<path d="M136.921 23.7835C136.711 24.4933 136.258 25.1073 135.641 25.518C135.024 25.9288 134.282 26.1102 133.544 26.0307C133.031 26.0442 132.521 25.9462 132.049 25.7434C131.578 25.5407 131.156 25.2381 130.814 24.8566C130.472 24.4752 130.217 24.024 130.067 23.5344C129.917 23.0448 129.875 22.5285 129.946 22.0214C129.877 21.5127 129.919 20.9953 130.069 20.5043C130.219 20.0132 130.472 19.5599 130.813 19.1751C131.153 18.7903 131.573 18.483 132.043 18.2739C132.513 18.0648 133.022 17.9589 133.537 17.9633C135.704 17.9633 137.014 19.4399 137.014 21.879V22.4139H131.513V22.4998C131.489 22.785 131.525 23.072 131.618 23.3425C131.712 23.613 131.861 23.861 132.056 24.0706C132.252 24.2802 132.489 24.4467 132.753 24.5594C133.016 24.6721 133.301 24.7286 133.588 24.7251C133.955 24.7689 134.328 24.7028 134.657 24.5351C134.987 24.3674 135.259 24.1058 135.439 23.7834L136.921 23.7835ZM131.513 21.2802H135.446C135.465 21.0196 135.43 20.7579 135.342 20.5118C135.254 20.2657 135.115 20.0407 134.935 19.8512C134.754 19.6617 134.536 19.5119 134.294 19.4115C134.053 19.3111 133.792 19.2622 133.53 19.268C133.264 19.2644 133 19.314 132.754 19.4138C132.508 19.5137 132.284 19.6618 132.096 19.8494C131.908 20.037 131.759 20.2602 131.659 20.506C131.559 20.7517 131.51 21.015 131.513 21.2802H131.513Z" fill="white"/>
<path d="M143.438 18.1133H146.95C148.474 18.1133 149.368 18.8831 149.368 20.0884C149.37 20.4709 149.24 20.8425 149.001 21.1412C148.761 21.4399 148.426 21.6474 148.052 21.7292V21.8505C148.506 21.8791 148.933 22.0809 149.243 22.4142C149.553 22.7474 149.723 23.1867 149.717 23.6412C149.717 24.9964 148.695 25.8808 146.986 25.8808H143.438V18.1133ZM144.962 19.29V21.3013H146.486C147.415 21.3013 147.859 20.945 147.859 20.288C147.859 19.6824 147.472 19.2899 146.656 19.2899L144.962 19.29ZM144.962 22.4283V24.7042H146.785C147.694 24.7042 148.18 24.3041 148.18 23.5696C148.18 22.7922 147.629 22.4283 146.592 22.4283L144.962 22.4283Z" fill="white"/>
</svg>
