<svg width="17" height="21" viewBox="0 0 17 21" fill="none" xmlns="http://www.w3.org/2000/svg">
<path d="M0.877307 7.73674C-0.881346 10.8136 0.236662 15.4829 2.18144 18.314C3.1522 19.7294 4.13503 21 5.48118 21C5.50655 21 5.53199 20.9995 5.55804 20.9985C6.1905 20.973 6.64754 20.7767 7.08944 20.587C7.58556 20.3738 8.09866 20.1534 8.90347 20.1534C9.66914 20.1534 10.1578 20.3667 10.6303 20.5728C11.096 20.776 11.5757 20.9861 12.2844 20.9727C13.8008 20.9442 14.7318 19.5732 15.5531 18.3637C16.4103 17.1009 16.8402 15.8747 16.9853 15.4062L16.9912 15.3876C17.0188 15.3043 16.9798 15.2134 16.9006 15.1767C16.8984 15.1757 16.8904 15.1723 16.8881 15.1714C16.6211 15.0613 14.2788 14.0136 14.2542 11.1583C14.2313 8.83847 16.0113 7.61001 16.3683 7.38735L16.385 7.3769C16.4236 7.3518 16.4506 7.31198 16.4597 7.26646C16.4689 7.22101 16.4593 7.1737 16.4334 7.13547C15.2047 5.32271 13.3216 5.04951 12.5635 5.01664C12.4534 5.00557 12.3399 5 12.2259 5C11.3354 5 10.4823 5.33907 9.79702 5.61152C9.32395 5.79959 8.91534 5.96201 8.63352 5.96201C8.31685 5.96201 7.90591 5.79759 7.43005 5.60725C6.7937 5.35262 6.07244 5.06409 5.30889 5.06409C5.29068 5.06409 5.27274 5.06429 5.25508 5.06464C3.47972 5.09097 1.80216 6.11501 0.877307 7.73674Z" fill="#C4C4C4"/>
<path d="M12.779 0.000129383C11.5812 0.0433594 10.1443 0.696726 9.28549 1.58813C8.55562 2.33738 7.84262 3.58661 8.03046 4.8458C8.04224 4.92458 8.11458 4.98539 8.20402 4.99152C8.28487 4.9971 8.3674 4.99993 8.44962 5C9.62083 5 10.8843 4.42582 11.7471 3.50129C12.6553 2.52505 13.1145 1.27218 12.9756 0.149953C12.9646 0.0620116 12.8773 -0.00330478 12.779 0.000129383Z" fill="#C4C4C4"/>
</svg>
