<svg width="40" height="40" viewBox="0 0 40 40" fill="none" xmlns="http://www.w3.org/2000/svg">
<path d="M6 1.00049H33.9985C36.7599 1.00049 38.9985 3.23907 38.9985 6.00049V33.999C38.9985 36.7604 36.7599 38.999 33.9985 38.999H6.00001C3.23858 38.999 1 36.7604 1 33.999V6.0005C1 3.23907 3.23858 1.00049 6 1.00049Z" stroke="white" stroke-opacity="0.3" stroke-width="2"/>
<path d="M17.6617 14.5919C17.6617 15.0366 17.6617 17.0214 17.6617 17.0214H15.8817V19.9923H17.6617V28.8207H21.3181V19.9925H23.7718C23.7718 19.9925 24.0016 18.568 24.113 17.0105C23.7936 17.0105 21.332 17.0105 21.332 17.0105C21.332 17.0105 21.332 15.2821 21.332 14.9792C21.332 14.6756 21.7306 14.2672 22.1247 14.2672C22.5179 14.2672 23.348 14.2672 24.1168 14.2672C24.1168 13.8627 24.1168 12.4651 24.1168 11.1743C23.0905 11.1743 21.9228 11.1743 21.4081 11.1743C17.5713 11.1741 17.6617 14.1479 17.6617 14.5919Z" fill="white"/>
</svg>
