<svg width="135" height="40" viewBox="0 0 135 40" fill="none" xmlns="http://www.w3.org/2000/svg">
<path d="M130 40H5C2.2 40 0 37.8 0 35V5C0 2.2 2.2 0 5 0H130C132.8 0 135 2.2 135 5V35C135 37.7 132.8 40 130 40Z" fill="black"/>
<path d="M68.1 21.7999C65.7 21.7999 63.8 23.5999 63.8 26.0999C63.8 28.4999 65.7 30.3999 68.1 30.3999C70.5 30.3999 72.4 28.5999 72.4 26.0999C72.4 23.4999 70.5 21.7999 68.1 21.7999ZM68.1 28.5999C66.8 28.5999 65.7 27.4999 65.7 25.9999C65.7 24.4999 66.8 23.3999 68.1 23.3999C69.4 23.3999 70.5 24.3999 70.5 25.9999C70.5 27.4999 69.4 28.5999 68.1 28.5999ZM58.8 21.7999C56.4 21.7999 54.5 23.5999 54.5 26.0999C54.5 28.4999 56.4 30.3999 58.8 30.3999C61.2 30.3999 63.1 28.5999 63.1 26.0999C63.1 23.4999 61.2 21.7999 58.8 21.7999ZM58.8 28.5999C57.5 28.5999 56.4 27.4999 56.4 25.9999C56.4 24.4999 57.5 23.3999 58.8 23.3999C60.1 23.3999 61.2 24.3999 61.2 25.9999C61.2 27.4999 60.1 28.5999 58.8 28.5999ZM47.7 23.0999V24.8999H52C51.9 25.8999 51.5 26.6999 51 27.1999C50.4 27.7999 49.4 28.4999 47.7 28.4999C45 28.4999 43 26.3999 43 23.6999C43 20.9999 45.1 18.8999 47.7 18.8999C49.1 18.8999 50.2 19.4999 51 20.1999L52.3 18.8999C51.2 17.8999 49.8 17.0999 47.8 17.0999C44.2 17.0999 41.1 20.0999 41.1 23.6999C41.1 27.2999 44.2 30.2999 47.8 30.2999C49.8 30.2999 51.2 29.6999 52.4 28.3999C53.6 27.1999 54 25.4999 54 24.1999C54 23.7999 54 23.3999 53.9 23.0999H47.7ZM93.1 24.4999C92.7 23.4999 91.7 21.7999 89.5 21.7999C87.3 21.7999 85.5 23.4999 85.5 26.0999C85.5 28.4999 87.3 30.3999 89.7 30.3999C91.6 30.3999 92.8 29.1999 93.2 28.4999L91.8 27.4999C91.3 28.1999 90.7 28.6999 89.7 28.6999C88.7 28.6999 88.1 28.2999 87.6 27.3999L93.3 24.9999L93.1 24.4999ZM87.3 25.8999C87.3 24.2999 88.6 23.3999 89.5 23.3999C90.2 23.3999 90.9 23.7999 91.1 24.2999L87.3 25.8999ZM82.6 29.9999H84.5V17.4999H82.6V29.9999ZM79.6 22.6999C79.1 22.1999 78.3 21.6999 77.3 21.6999C75.2 21.6999 73.2 23.5999 73.2 25.9999C73.2 28.3999 75.1 30.1999 77.3 30.1999C78.3 30.1999 79.1 29.6999 79.5 29.1999H79.6V29.7999C79.6 31.3999 78.7 32.2999 77.3 32.2999C76.2 32.2999 75.4 31.4999 75.2 30.7999L73.6 31.4999C74.1 32.5999 75.3 33.9999 77.4 33.9999C79.6 33.9999 81.4 32.6999 81.4 29.5999V21.9999H79.6V22.6999ZM77.4 28.5999C76.1 28.5999 75 27.4999 75 25.9999C75 24.4999 76.1 23.3999 77.4 23.3999C78.7 23.3999 79.7 24.4999 79.7 25.9999C79.7 27.4999 78.7 28.5999 77.4 28.5999ZM101.8 17.4999H97.3V29.9999H99.2V25.2999H101.8C103.9 25.2999 105.9 23.7999 105.9 21.3999C105.9 18.9999 103.9 17.4999 101.8 17.4999ZM101.9 23.4999H99.2V19.1999H101.9C103.3 19.1999 104.1 20.3999 104.1 21.2999C104 22.3999 103.2 23.4999 101.9 23.4999ZM113.4 21.6999C112 21.6999 110.6 22.2999 110.1 23.5999L111.8 24.2999C112.2 23.5999 112.8 23.3999 113.5 23.3999C114.5 23.3999 115.4 23.9999 115.5 24.9999V25.0999C115.2 24.8999 114.4 24.5999 113.6 24.5999C111.8 24.5999 110 25.5999 110 27.3999C110 29.0999 111.5 30.1999 113.1 30.1999C114.4 30.1999 115 29.5999 115.5 28.9999H115.6V29.9999H117.4V25.1999C117.2 22.9999 115.5 21.6999 113.4 21.6999ZM113.2 28.5999C112.6 28.5999 111.7 28.2999 111.7 27.4999C111.7 26.4999 112.8 26.1999 113.7 26.1999C114.5 26.1999 114.9 26.3999 115.4 26.5999C115.2 27.7999 114.2 28.5999 113.2 28.5999ZM123.7 21.9999L121.6 27.3999H121.5L119.3 21.9999H117.3L120.6 29.5999L118.7 33.7999H120.6L125.7 21.9999H123.7ZM106.9 29.9999H108.8V17.4999H106.9V29.9999Z" fill="white"/>
<path d="M10.4 7.5C10.1 7.8 9.90002 8.3 9.90002 8.9V31C9.90002 31.6 10.1 32.1 10.4 32.4L10.5 32.5L22.9 20.1V20V19.9L10.4 7.5Z" fill="url(#paint0_linear)"/>
<path d="M27 24.3L22.9 20.2001V20V19.9L27 15.8L27.1 15.9L32 18.7001C33.4 19.5001 33.4 20.8 32 21.6L27 24.3Z" fill="url(#paint1_linear)"/>
<path d="M27.1 24.2L22.9 20L10.4 32.5C10.9 33 11.6 33 12.5 32.6L27.1 24.2Z" fill="url(#paint2_linear)"/>
<path d="M27.1 15.8001L12.5 7.50011C11.6 7.00011 10.9 7.10011 10.4 7.60011L22.9 20.0001L27.1 15.8001Z" fill="url(#paint3_linear)"/>
<path opacity="0.2" d="M27 24.0999L12.5 32.2999C11.7 32.7999 11 32.6999 10.5 32.2999L10.4 32.3999L10.5 32.4999C11 32.8999 11.7 32.9999 12.5 32.4999L27 24.0999Z" fill="black"/>
<path opacity="0.12" d="M10.4 32.3C10.1 32 10 31.5 10 30.9V31C10 31.6 10.2 32.1 10.5 32.4V32.3H10.4Z" fill="black"/>
<path opacity="0.12" d="M32 21.3L27 24.1L27.1 24.2L32 21.4C32.7 21 33 20.5 33 20C33 20.5 32.6 20.9 32 21.3Z" fill="black"/>
<path opacity="0.25" d="M12.5 7.59988L32 18.6999C32.6 19.0999 33 19.4999 33 19.9999C33 19.4999 32.7 18.9999 32 18.5999L12.5 7.49988C11.1 6.69988 10 7.39988 10 8.99988V9.09988C10 7.49988 11.1 6.79988 12.5 7.59988Z" fill="white"/>
<path d="M42.1 14.3H41.4V12.3H42C42.5 11.9 42.8 11.1 42.8 10V7H46.8V12.3H47.5V14.3H46.8V13H42.2V14.3H42.1ZM43.5 10C43.5 10.9 43.3 11.7 42.9 12.3H45.9V7.8H43.4V10H43.5Z" fill="white" stroke="white" stroke-width="0.2" stroke-miterlimit="10"/>
<path d="M53.4001 12.1999C52.8001 12.7999 52.1001 13.0999 51.2001 13.0999C50.3001 13.0999 49.6001 12.7999 49.0001 12.1999C48.4001 11.5999 48.1001 10.8999 48.1001 9.9999C48.1001 9.0999 48.4001 8.3999 49.0001 7.7999C49.6001 7.1999 50.3001 6.8999 51.2001 6.8999C52.1001 6.8999 52.8001 7.1999 53.4001 7.7999C54.0001 8.3999 54.3001 9.0999 54.3001 9.9999C54.3001 10.8999 54.0001 11.5999 53.4001 12.1999ZM49.6001 11.6999C50.0001 12.0999 50.6001 12.3999 51.2001 12.3999C51.8001 12.3999 52.4001 12.1999 52.8001 11.6999C53.2001 11.2999 53.5001 10.6999 53.5001 9.9999C53.5001 9.2999 53.3001 8.6999 52.8001 8.2999C52.4001 7.8999 51.8001 7.5999 51.2001 7.5999C50.6001 7.5999 50.0001 7.7999 49.6001 8.2999C49.2001 8.6999 48.9001 9.2999 48.9001 9.9999C48.9001 10.6999 49.1001 11.2999 49.6001 11.6999Z" fill="white" stroke="white" stroke-width="0.2" stroke-miterlimit="10"/>
<path d="M58.2001 13.0999C57.3001 13.0999 56.6001 12.7999 56.0001 12.1999C55.4001 11.5999 55.1001 10.8999 55.1001 9.9999C55.1001 9.0999 55.4001 8.3999 56.0001 7.7999C56.6001 7.1999 57.3001 6.8999 58.2001 6.8999C59.1001 6.8999 59.8001 7.1999 60.4001 7.8999L59.9001 8.3999C59.5001 7.8999 58.9001 7.5999 58.2001 7.5999C57.5001 7.5999 57.0001 7.7999 56.5001 8.2999C56.0001 8.6999 55.8001 9.2999 55.8001 9.9999C55.8001 10.6999 56.0001 11.2999 56.5001 11.6999C56.9001 12.0999 57.5001 12.3999 58.2001 12.3999C58.9001 12.3999 59.5001 12.0999 60.0001 11.4999L60.5001 11.9999C60.2001 12.2999 59.9001 12.5999 59.5001 12.7999C59.1001 12.9999 58.7001 13.0999 58.2001 13.0999Z" fill="white" stroke="white" stroke-width="0.2" stroke-miterlimit="10"/>
<path d="M63.7 12.9999H62.9V7.69988H61.2V6.99988H65.3V7.69988H63.6V12.9999H63.7Z" fill="white" stroke="white" stroke-width="0.2" stroke-miterlimit="10"/>
<path d="M70.6 6.99976L68.3 12.0998C68 12.7998 67.5 13.1998 66.9 13.1998C66.7 13.1998 66.5 13.1998 66.3 13.0998L66.5 12.3998C66.6 12.4998 66.8 12.4998 66.9 12.4998C67.1 12.4998 67.2 12.4998 67.3 12.3998C67.4 12.2998 67.5 12.1998 67.6 11.9998L67.8 11.4998L65.8 7.09976H66.7L68.2 10.4998L69.6 7.09976H70.6V6.99976Z" fill="white" stroke="white" stroke-width="0.2" stroke-miterlimit="10"/>
<path d="M71.5 12.9999V6.99988H75.8V12.9999H75V7.69988H72.2V12.9999H71.5Z" fill="white" stroke="white" stroke-width="0.2" stroke-miterlimit="10"/>
<path d="M77.2 12.9999V6.99988H78V9.59988H81V6.99988H81.8V12.9999H81V10.2999H78V12.9999H77.2Z" fill="white" stroke="white" stroke-width="0.2" stroke-miterlimit="10"/>
<path d="M88.1 12.1999C87.5 12.7999 86.8 13.0999 85.9 13.0999C85 13.0999 84.3 12.7999 83.7 12.1999C83.1 11.5999 82.8 10.8999 82.8 9.9999C82.8 9.0999 83.1 8.3999 83.7 7.7999C84.3 7.1999 85 6.8999 85.9 6.8999C86.8 6.8999 87.5 7.1999 88.1 7.7999C88.7 8.3999 89 9.0999 89 9.9999C88.9 10.8999 88.6 11.5999 88.1 12.1999ZM84.2 11.6999C84.6 12.0999 85.2 12.3999 85.8 12.3999C86.4 12.3999 87 12.1999 87.4 11.6999C87.8 11.2999 88.1 10.6999 88.1 9.9999C88.1 9.2999 87.9 8.6999 87.4 8.2999C87 7.8999 86.4 7.5999 85.8 7.5999C85.2 7.5999 84.6 7.7999 84.2 8.2999C83.8 8.6999 83.5 9.2999 83.5 9.9999C83.5 10.6999 83.8 11.2999 84.2 11.6999Z" fill="white" stroke="white" stroke-width="0.2" stroke-miterlimit="10"/>
<path d="M92.1001 13V7H94.3001C94.8001 7 95.2001 7.2 95.5001 7.5C95.8001 7.8 96.0001 8.2 96.0001 8.7C96.0001 9 95.9001 9.2 95.8001 9.5C95.7001 9.7 95.5001 9.9 95.2001 10C95.5001 10.1 95.7001 10.3 95.9001 10.5C96.1001 10.7 96.2001 11 96.2001 11.4C96.2001 11.9 96.0001 12.3 95.7001 12.6C95.3001 12.9 94.9001 13.1 94.4001 13.1H92.1001V13ZM92.9001 9.6H94.3001C94.6001 9.6 94.8001 9.5 95.0001 9.3C95.2001 9.1 95.3001 8.9 95.3001 8.7C95.3001 8.5 95.2001 8.3 95.0001 8.1C94.8001 7.9 94.6001 7.8 94.3001 7.8H92.9001V9.6ZM92.9001 12.3H94.5001C94.8001 12.3 95.0001 12.2 95.2001 12C95.4001 11.8 95.5001 11.6 95.5001 11.3C95.5001 11.1 95.4001 10.8 95.2001 10.6C95.0001 10.4 94.8001 10.3 94.5001 10.3H93.0001V12.3H92.9001Z" fill="white" stroke="white" stroke-width="0.2" stroke-miterlimit="10"/>
<defs>
<linearGradient id="paint0_linear" x1="21.7997" y1="8.7097" x2="5.01733" y2="25.4921" gradientUnits="userSpaceOnUse">
<stop stop-color="#00A0FF"/>
<stop offset="0.00657445" stop-color="#00A1FF"/>
<stop offset="0.2601" stop-color="#00BEFF"/>
<stop offset="0.5122" stop-color="#00D2FF"/>
<stop offset="0.7604" stop-color="#00DFFF"/>
<stop offset="1" stop-color="#00E3FF"/>
</linearGradient>
<linearGradient id="paint1_linear" x1="33.8344" y1="20.0014" x2="9.63753" y2="20.0014" gradientUnits="userSpaceOnUse">
<stop stop-color="#FFE000"/>
<stop offset="0.4087" stop-color="#FFBD00"/>
<stop offset="0.7754" stop-color="#FFA500"/>
<stop offset="1" stop-color="#FF9C00"/>
</linearGradient>
<linearGradient id="paint2_linear" x1="24.827" y1="22.2961" x2="2.06873" y2="45.0544" gradientUnits="userSpaceOnUse">
<stop stop-color="#FF3A44"/>
<stop offset="1" stop-color="#C31162"/>
</linearGradient>
<linearGradient id="paint3_linear" x1="7.29732" y1="0.176312" x2="17.4599" y2="10.3388" gradientUnits="userSpaceOnUse">
<stop stop-color="#32A071"/>
<stop offset="0.0685" stop-color="#2DA771"/>
<stop offset="0.4762" stop-color="#15CF74"/>
<stop offset="0.8009" stop-color="#06E775"/>
<stop offset="1" stop-color="#00F076"/>
</linearGradient>
</defs>
</svg>
