<svg width="135" height="41" viewBox="0 0 135 41" fill="none" xmlns="http://www.w3.org/2000/svg">
<path d="M130 40.0352H5.00012C2.20012 40.0352 0.00012207 37.8352 0.00012207 35.0352V5.03516C0.00012207 2.23516 2.20012 0.0351562 5.00012 0.0351562H130C132.8 0.0351562 135 2.23516 135 5.03516V35.0352C135 37.7352 132.8 40.0352 130 40.0352Z" fill="black"/>
<path d="M130 0.835156C132.3 0.835156 134.2 2.73516 134.2 5.03516V35.0352C134.2 37.3352 132.3 39.2352 130 39.2352H5.00012C2.70012 39.2352 0.800122 37.3352 0.800122 35.0352V5.03516C0.800122 2.73516 2.70012 0.835156 5.00012 0.835156H130ZM130 0.0351562H5.00012C2.20012 0.0351562 0.00012207 2.23516 0.00012207 5.03516V35.0352C0.00012207 37.8352 2.20012 40.0352 5.00012 40.0352H130C132.8 40.0352 135 37.8352 135 35.0352V5.03516C135 2.33516 132.8 0.0351562 130 0.0351562Z" fill="#A6A6A6"/>
<path d="M68.1001 21.8353C65.7001 21.8353 63.8001 23.6353 63.8001 26.1353C63.8001 28.5353 65.7001 30.4353 68.1001 30.4353C70.5001 30.4353 72.4001 28.6353 72.4001 26.1353C72.4001 23.5353 70.5001 21.8353 68.1001 21.8353ZM68.1001 28.6353C66.8001 28.6353 65.7001 27.5353 65.7001 26.0353C65.7001 24.5353 66.8001 23.4353 68.1001 23.4353C69.4001 23.4353 70.5001 24.4353 70.5001 26.0353C70.5001 27.5353 69.4001 28.6353 68.1001 28.6353ZM58.8001 21.8353C56.4001 21.8353 54.5001 23.6353 54.5001 26.1353C54.5001 28.5353 56.4001 30.4353 58.8001 30.4353C61.2001 30.4353 63.1001 28.6353 63.1001 26.1353C63.1001 23.5353 61.2001 21.8353 58.8001 21.8353ZM58.8001 28.6353C57.5001 28.6353 56.4001 27.5353 56.4001 26.0353C56.4001 24.5353 57.5001 23.4353 58.8001 23.4353C60.1001 23.4353 61.2001 24.4353 61.2001 26.0353C61.2001 27.5353 60.1001 28.6353 58.8001 28.6353ZM47.7001 23.1353V24.9353H52.0001C51.9001 25.9353 51.5001 26.7353 51.0001 27.2353C50.4001 27.8353 49.4001 28.5353 47.7001 28.5353C45.0001 28.5353 43.0001 26.4353 43.0001 23.7353C43.0001 21.0353 45.1001 18.9353 47.7001 18.9353C49.1001 18.9353 50.2001 19.5353 51.0001 20.2353L52.3001 18.9353C51.2001 17.9353 49.8001 17.1353 47.8001 17.1353C44.2001 17.1353 41.1001 20.1353 41.1001 23.7353C41.1001 27.3353 44.2001 30.3353 47.8001 30.3353C49.8001 30.3353 51.2001 29.7353 52.4001 28.4353C53.6001 27.2353 54.0001 25.5353 54.0001 24.2353C54.0001 23.8353 54.0001 23.4353 53.9001 23.1353H47.7001ZM93.1001 24.5353C92.7001 23.5353 91.7001 21.8353 89.5001 21.8353C87.3001 21.8353 85.5001 23.5353 85.5001 26.1353C85.5001 28.5353 87.3001 30.4353 89.7001 30.4353C91.6001 30.4353 92.8001 29.2353 93.2001 28.5353L91.8001 27.5353C91.3001 28.2353 90.7001 28.7353 89.7001 28.7353C88.7001 28.7353 88.1001 28.3353 87.6001 27.4353L93.3001 25.0353L93.1001 24.5353ZM87.3001 25.9353C87.3001 24.3353 88.6001 23.4353 89.5001 23.4353C90.2001 23.4353 90.9001 23.8353 91.1001 24.3353L87.3001 25.9353ZM82.6001 30.0353H84.5001V17.5353H82.6001V30.0353ZM79.6001 22.7353C79.1001 22.2353 78.3001 21.7353 77.3001 21.7353C75.2001 21.7353 73.2001 23.6353 73.2001 26.0353C73.2001 28.4353 75.1001 30.2353 77.3001 30.2353C78.3001 30.2353 79.1001 29.7353 79.5001 29.2353H79.6001V29.8353C79.6001 31.4353 78.7001 32.3353 77.3001 32.3353C76.2001 32.3353 75.4001 31.5353 75.2001 30.8353L73.6001 31.5353C74.1001 32.6353 75.3001 34.0353 77.4001 34.0353C79.6001 34.0353 81.4001 32.7353 81.4001 29.6353V22.0353H79.6001V22.7353ZM77.4001 28.6353C76.1001 28.6353 75.0001 27.5353 75.0001 26.0353C75.0001 24.5353 76.1001 23.4353 77.4001 23.4353C78.7001 23.4353 79.7001 24.5353 79.7001 26.0353C79.7001 27.5353 78.7001 28.6353 77.4001 28.6353ZM101.8 17.5353H97.3001V30.0353H99.2001V25.3353H101.8C103.9 25.3353 105.9 23.8353 105.9 21.4353C105.9 19.0353 103.9 17.5353 101.8 17.5353ZM101.9 23.5353H99.2001V19.2353H101.9C103.3 19.2353 104.1 20.4353 104.1 21.3353C104 22.4353 103.2 23.5353 101.9 23.5353ZM113.4 21.7353C112 21.7353 110.6 22.3353 110.1 23.6353L111.8 24.3353C112.2 23.6353 112.8 23.4353 113.5 23.4353C114.5 23.4353 115.4 24.0353 115.5 25.0353V25.1353C115.2 24.9353 114.4 24.6353 113.6 24.6353C111.8 24.6353 110 25.6353 110 27.4353C110 29.1353 111.5 30.2353 113.1 30.2353C114.4 30.2353 115 29.6353 115.5 29.0353H115.6V30.0353H117.4V25.2353C117.2 23.0353 115.5 21.7353 113.4 21.7353ZM113.2 28.6353C112.6 28.6353 111.7 28.3353 111.7 27.5353C111.7 26.5353 112.8 26.2353 113.7 26.2353C114.5 26.2353 114.9 26.4353 115.4 26.6353C115.2 27.8353 114.2 28.6353 113.2 28.6353ZM123.7 22.0353L121.6 27.4353H121.5L119.3 22.0353H117.3L120.6 29.6353L118.7 33.8353H120.6L125.7 22.0353H123.7ZM106.9 30.0353H108.8V17.5353H106.9V30.0353Z" fill="white"/>
<path d="M10.4001 7.53516C10.1001 7.83516 9.90015 8.33516 9.90015 8.93516V31.0352C9.90015 31.6352 10.1001 32.1352 10.4001 32.4352L10.5001 32.5352L22.9001 20.1352V20.0352V19.9352L10.4001 7.53516Z" fill="url(#paint0_linear)"/>
<path d="M27.0001 24.335L22.9001 20.235V20.035V19.935L27.0001 15.835L27.1001 15.935L32.0001 18.735C33.4001 19.535 33.4001 20.835 32.0001 21.635L27.0001 24.335Z" fill="url(#paint1_linear)"/>
<path d="M27.1001 24.2352L22.9001 20.0352L10.4001 32.5352C10.9001 33.0352 11.6001 33.0352 12.5001 32.6352L27.1001 24.2352Z" fill="url(#paint2_linear)"/>
<path d="M27.1001 15.8358L12.5001 7.53576C11.6001 7.03576 10.9001 7.13576 10.4001 7.63576L22.9001 20.0358L27.1001 15.8358Z" fill="url(#paint3_linear)"/>
<path opacity="0.2" d="M27.0001 24.1353L12.5001 32.3353C11.7001 32.8353 11.0001 32.7353 10.5001 32.3353L10.4001 32.4353L10.5001 32.5353C11.0001 32.9353 11.7001 33.0353 12.5001 32.5353L27.0001 24.1353Z" fill="black"/>
<path opacity="0.12" d="M10.4001 32.3355C10.1001 32.0355 10.0001 31.5355 10.0001 30.9355V31.0355C10.0001 31.6355 10.2001 32.1355 10.5001 32.4355V32.3355H10.4001Z" fill="black"/>
<path opacity="0.12" d="M32.0001 21.3352L27.0001 24.1352L27.1001 24.2352L32.0001 21.4352C32.7001 21.0352 33.0001 20.5352 33.0001 20.0352C33.0001 20.5352 32.6001 20.9352 32.0001 21.3352Z" fill="black"/>
<path opacity="0.25" d="M12.5001 7.63552L32.0001 18.7355C32.6001 19.1355 33.0001 19.5355 33.0001 20.0355C33.0001 19.5355 32.7001 19.0355 32.0001 18.6355L12.5001 7.53552C11.1001 6.73552 10.0001 7.43552 10.0001 9.03552V9.13552C10.0001 7.53552 11.1001 6.83552 12.5001 7.63552Z" fill="white"/>
<path d="M42.1001 14.3352H41.4001V12.3352H42.0001C42.5001 11.9352 42.8001 11.1352 42.8001 10.0352V7.03516H46.8001V12.3352H47.5001V14.3352H46.8001V13.0352H42.2001V14.3352H42.1001ZM43.5001 10.0352C43.5001 10.9352 43.3001 11.7352 42.9001 12.3352H45.9001V7.83516H43.4001V10.0352H43.5001Z" fill="white" stroke="white" stroke-width="0.2" stroke-miterlimit="10"/>
<path d="M53.4002 12.2351C52.8002 12.8351 52.1002 13.1351 51.2002 13.1351C50.3002 13.1351 49.6002 12.8351 49.0002 12.2351C48.4002 11.6351 48.1002 10.9351 48.1002 10.0351C48.1002 9.13506 48.4002 8.43506 49.0002 7.83506C49.6002 7.23506 50.3002 6.93506 51.2002 6.93506C52.1002 6.93506 52.8002 7.23506 53.4002 7.83506C54.0002 8.43506 54.3002 9.13506 54.3002 10.0351C54.3002 10.9351 54.0002 11.6351 53.4002 12.2351ZM49.6002 11.7351C50.0002 12.1351 50.6002 12.4351 51.2002 12.4351C51.8002 12.4351 52.4002 12.2351 52.8002 11.7351C53.2002 11.3351 53.5002 10.7351 53.5002 10.0351C53.5002 9.33506 53.3002 8.73506 52.8002 8.33506C52.4002 7.93506 51.8002 7.63506 51.2002 7.63506C50.6002 7.63506 50.0002 7.83506 49.6002 8.33506C49.2002 8.73506 48.9002 9.33506 48.9002 10.0351C48.9002 10.7351 49.1002 11.3351 49.6002 11.7351Z" fill="white" stroke="white" stroke-width="0.2" stroke-miterlimit="10"/>
<path d="M58.2002 13.1351C57.3002 13.1351 56.6002 12.8351 56.0002 12.2351C55.4002 11.6351 55.1002 10.9351 55.1002 10.0351C55.1002 9.13506 55.4002 8.43506 56.0002 7.83506C56.6002 7.23506 57.3002 6.93506 58.2002 6.93506C59.1002 6.93506 59.8002 7.23506 60.4002 7.93506L59.9002 8.43506C59.5002 7.93506 58.9002 7.63506 58.2002 7.63506C57.5002 7.63506 57.0002 7.83506 56.5002 8.33506C56.0002 8.73506 55.8002 9.33506 55.8002 10.0351C55.8002 10.7351 56.0002 11.3351 56.5002 11.7351C56.9002 12.1351 57.5002 12.4351 58.2002 12.4351C58.9002 12.4351 59.5002 12.1351 60.0002 11.5351L60.5002 12.0351C60.2002 12.3351 59.9002 12.6351 59.5002 12.8351C59.1002 13.0351 58.7002 13.1351 58.2002 13.1351Z" fill="white" stroke="white" stroke-width="0.2" stroke-miterlimit="10"/>
<path d="M63.7001 13.0352H62.9001V7.73516H61.2001V7.03516H65.3001V7.73516H63.6001V13.0352H63.7001Z" fill="white" stroke="white" stroke-width="0.2" stroke-miterlimit="10"/>
<path d="M70.6002 7.03516L68.3002 12.1352C68.0002 12.8352 67.5002 13.2352 66.9002 13.2352C66.7002 13.2352 66.5002 13.2352 66.3002 13.1352L66.5002 12.4352C66.6002 12.5352 66.8002 12.5352 66.9002 12.5352C67.1002 12.5352 67.2002 12.5352 67.3002 12.4352C67.4002 12.3352 67.5002 12.2352 67.6002 12.0352L67.8002 11.5352L65.8002 7.13516H66.7002L68.2002 10.5352L69.6002 7.13516H70.6002V7.03516Z" fill="white" stroke="white" stroke-width="0.2" stroke-miterlimit="10"/>
<path d="M71.5001 13.0352V7.03516H75.8001V13.0352H75.0001V7.73516H72.2001V13.0352H71.5001Z" fill="white" stroke="white" stroke-width="0.2" stroke-miterlimit="10"/>
<path d="M77.2001 13.0352V7.03516H78.0001V9.63516H81.0001V7.03516H81.8001V13.0352H81.0001V10.3352H78.0001V13.0352H77.2001Z" fill="white" stroke="white" stroke-width="0.2" stroke-miterlimit="10"/>
<path d="M88.1002 12.2351C87.5002 12.8351 86.8002 13.1351 85.9002 13.1351C85.0002 13.1351 84.3002 12.8351 83.7002 12.2351C83.1002 11.6351 82.8002 10.9351 82.8002 10.0351C82.8002 9.13506 83.1002 8.43506 83.7002 7.83506C84.3002 7.23506 85.0002 6.93506 85.9002 6.93506C86.8002 6.93506 87.5002 7.23506 88.1002 7.83506C88.7002 8.43506 89.0002 9.13506 89.0002 10.0351C88.9002 10.9351 88.6002 11.6351 88.1002 12.2351ZM84.2002 11.7351C84.6002 12.1351 85.2002 12.4351 85.8002 12.4351C86.4002 12.4351 87.0002 12.2351 87.4002 11.7351C87.8002 11.3351 88.1002 10.7351 88.1002 10.0351C88.1002 9.33506 87.9002 8.73506 87.4002 8.33506C87.0002 7.93506 86.4002 7.63506 85.8002 7.63506C85.2002 7.63506 84.6002 7.83506 84.2002 8.33506C83.8002 8.73506 83.5002 9.33506 83.5002 10.0351C83.5002 10.7351 83.8002 11.3351 84.2002 11.7351Z" fill="white" stroke="white" stroke-width="0.2" stroke-miterlimit="10"/>
<path d="M92.1001 13.0352V7.03516H94.3001C94.8001 7.03516 95.2001 7.23516 95.5001 7.53516C95.8001 7.83516 96.0001 8.23516 96.0001 8.73516C96.0001 9.03516 95.9001 9.23516 95.8001 9.53516C95.7001 9.73516 95.5001 9.93516 95.2001 10.0352C95.5001 10.1352 95.7001 10.3352 95.9001 10.5352C96.1001 10.7352 96.2001 11.0352 96.2001 11.4352C96.2001 11.9352 96.0001 12.3352 95.7001 12.6352C95.3001 12.9352 94.9001 13.1352 94.4001 13.1352H92.1001V13.0352ZM92.9001 9.63516H94.3001C94.6001 9.63516 94.8001 9.53516 95.0001 9.33516C95.2001 9.13516 95.3001 8.93516 95.3001 8.73516C95.3001 8.53516 95.2001 8.33516 95.0001 8.13516C94.8001 7.93516 94.6001 7.83516 94.3001 7.83516H92.9001V9.63516ZM92.9001 12.3352H94.5001C94.8001 12.3352 95.0001 12.2352 95.2001 12.0352C95.4001 11.8352 95.5001 11.6352 95.5001 11.3352C95.5001 11.1352 95.4001 10.8352 95.2001 10.6352C95.0001 10.4352 94.8001 10.3352 94.5001 10.3352H93.0001V12.3352H92.9001Z" fill="white" stroke="white" stroke-width="0.2" stroke-miterlimit="10"/>
<defs>
<linearGradient id="paint0_linear" x1="21.7998" y1="8.74486" x2="5.01745" y2="25.5273" gradientUnits="userSpaceOnUse">
<stop stop-color="#00A0FF"/>
<stop offset="0.00657445" stop-color="#00A1FF"/>
<stop offset="0.2601" stop-color="#00BEFF"/>
<stop offset="0.5122" stop-color="#00D2FF"/>
<stop offset="0.7604" stop-color="#00DFFF"/>
<stop offset="1" stop-color="#00E3FF"/>
</linearGradient>
<linearGradient id="paint1_linear" x1="33.8345" y1="20.0364" x2="9.63765" y2="20.0364" gradientUnits="userSpaceOnUse">
<stop stop-color="#FFE000"/>
<stop offset="0.4087" stop-color="#FFBD00"/>
<stop offset="0.7754" stop-color="#FFA500"/>
<stop offset="1" stop-color="#FF9C00"/>
</linearGradient>
<linearGradient id="paint2_linear" x1="24.8271" y1="22.3313" x2="2.06885" y2="45.0896" gradientUnits="userSpaceOnUse">
<stop stop-color="#FF3A44"/>
<stop offset="1" stop-color="#C31162"/>
</linearGradient>
<linearGradient id="paint3_linear" x1="7.29745" y1="0.211956" x2="17.46" y2="10.3745" gradientUnits="userSpaceOnUse">
<stop stop-color="#32A071"/>
<stop offset="0.0685" stop-color="#2DA771"/>
<stop offset="0.4762" stop-color="#15CF74"/>
<stop offset="0.8009" stop-color="#06E775"/>
<stop offset="1" stop-color="#00F076"/>
</linearGradient>
</defs>
</svg>
