<svg width="234" height="70" viewBox="0 0 234 70" fill="none" xmlns="http://www.w3.org/2000/svg">
<path d="M118.237 38.1703C114.087 38.1703 110.801 41.2832 110.801 45.6067C110.801 49.7572 114.087 53.0431 118.237 53.0431C122.388 53.0431 125.673 49.9302 125.673 45.6067C125.673 41.1103 122.388 38.1703 118.237 38.1703ZM118.237 49.9302C115.989 49.9302 114.087 48.0278 114.087 45.4338C114.087 42.8397 115.989 40.9374 118.237 40.9374C120.485 40.9374 122.388 42.6667 122.388 45.4338C122.388 48.0278 120.485 49.9302 118.237 49.9302ZM102.154 38.1703C98.0033 38.1703 94.7175 41.2832 94.7175 45.6067C94.7175 49.7572 98.0033 53.0431 102.154 53.0431C106.304 53.0431 109.59 49.9302 109.59 45.6067C109.59 41.1103 106.304 38.1703 102.154 38.1703ZM102.154 49.9302C99.9056 49.9302 98.0033 48.0278 98.0033 45.4338C98.0033 42.8397 99.9056 40.9374 102.154 40.9374C104.402 40.9374 106.304 42.6667 106.304 45.4338C106.304 48.0278 104.402 49.9302 102.154 49.9302ZM82.9576 40.4185V43.5314H90.394C90.2211 45.2608 89.5293 46.6443 88.6646 47.509C87.627 48.5467 85.8976 49.7572 82.9576 49.7572C78.2883 49.7572 74.8295 46.1255 74.8295 41.4562C74.8295 36.7868 78.4612 33.1551 82.9576 33.1551C85.3788 33.1551 87.2811 34.1928 88.6646 35.4033L90.9128 33.1551C89.0105 31.4257 86.5894 30.0422 83.1306 30.0422C76.9048 30.0422 71.5437 35.2304 71.5437 41.4562C71.5437 47.682 76.9048 52.8701 83.1306 52.8701C86.5894 52.8701 89.0105 51.8325 91.0858 49.5843C93.161 47.509 93.8528 44.5691 93.8528 42.3209C93.8528 41.6291 93.8528 40.9374 93.6798 40.4185H82.9576ZM161.472 42.8397C160.78 41.1103 159.051 38.1703 155.246 38.1703C151.441 38.1703 148.328 41.1103 148.328 45.6067C148.328 49.7572 151.441 53.0431 155.592 53.0431C158.878 53.0431 160.953 50.9678 161.645 49.7572L159.224 48.0278C158.359 49.2384 157.321 50.1031 155.592 50.1031C153.862 50.1031 152.825 49.4114 151.96 47.8549L161.818 43.7044L161.472 42.8397ZM151.441 45.2608C151.441 42.4938 153.689 40.9374 155.246 40.9374C156.457 40.9374 157.667 41.6291 158.013 42.4938L151.441 45.2608ZM143.313 52.3513H146.599V30.734H143.313V52.3513ZM138.125 39.7268C137.26 38.8621 135.877 37.9974 134.147 37.9974C130.516 37.9974 127.057 41.2832 127.057 45.4338C127.057 49.5843 130.343 52.6972 134.147 52.6972C135.877 52.6972 137.26 51.8325 137.952 50.9678H138.125V52.0054C138.125 54.7724 136.569 56.3289 134.147 56.3289C132.245 56.3289 130.862 54.9454 130.516 53.7348L127.749 54.9454C128.613 56.8477 130.689 59.2688 134.32 59.2688C138.125 59.2688 141.238 57.0206 141.238 51.6595V38.5162H138.125V39.7268ZM134.32 49.9302C132.072 49.9302 130.17 48.0278 130.17 45.4338C130.17 42.8397 132.072 40.9374 134.32 40.9374C136.569 40.9374 138.298 42.8397 138.298 45.4338C138.298 48.0278 136.569 49.9302 134.32 49.9302ZM176.517 30.734H168.735V52.3513H172.021V44.2232H176.517C180.149 44.2232 183.608 41.6291 183.608 37.4786C183.608 33.3281 180.149 30.734 176.517 30.734ZM176.69 41.1103H172.021V33.6739H176.69C179.111 33.6739 180.495 35.7492 180.495 37.3057C180.322 39.208 178.939 41.1103 176.69 41.1103ZM196.578 37.9974C194.157 37.9974 191.736 39.035 190.871 41.2832L193.811 42.4938C194.503 41.2832 195.541 40.9374 196.751 40.9374C198.481 40.9374 200.037 41.975 200.21 43.7044V43.8773C199.691 43.5314 198.308 43.0126 196.924 43.0126C193.811 43.0126 190.698 44.742 190.698 47.8549C190.698 50.7949 193.292 52.6972 196.059 52.6972C198.308 52.6972 199.345 51.6595 200.21 50.6219H200.383V52.3513H203.496V44.0503C203.15 40.2456 200.21 37.9974 196.578 37.9974ZM196.232 49.9302C195.195 49.9302 193.638 49.4113 193.638 48.0278C193.638 46.2985 195.541 45.7796 197.097 45.7796C198.481 45.7796 199.172 46.1255 200.037 46.4714C199.691 48.5467 197.962 49.9302 196.232 49.9302ZM214.391 38.5162L210.759 47.8549H210.586L206.782 38.5162H203.323L209.03 51.6595L205.744 58.923H209.03L217.85 38.5162H214.391ZM185.337 52.3513H188.623V30.734H185.337V52.3513Z" fill="white"/>
<path d="M18.4516 13.4404C17.9328 13.9592 17.5869 14.8239 17.5869 15.8616V54.081C17.5869 55.1186 17.9328 55.9833 18.4516 56.5021L18.6245 56.6751L40.0689 35.2307V35.0577V34.8848L18.4516 13.4404Z" fill="url(#paint0_linear)"/>
<path d="M47.1594 42.4942L40.0689 35.4037V35.0579V34.8849L47.1594 27.7944L47.3323 27.9674L55.8063 32.8097C58.2274 34.1932 58.2274 36.4414 55.8063 37.8249L47.1594 42.4942Z" fill="url(#paint1_linear)"/>
<path d="M47.3323 42.321L40.0689 35.0576L18.4516 56.6749C19.3163 57.5396 20.5269 57.5396 22.0833 56.8479L47.3323 42.321Z" fill="url(#paint2_linear)"/>
<path d="M47.3323 27.7945L22.0833 13.4406C20.5269 12.5759 19.3163 12.7488 18.4516 13.6135L40.0689 35.0579L47.3323 27.7945Z" fill="url(#paint3_linear)"/>
<path opacity="0.2" d="M47.1594 42.1482L22.0833 56.3292C20.6998 57.1938 19.4892 57.0209 18.6245 56.3292L18.4516 56.5021L18.6245 56.675C19.4892 57.3668 20.6998 57.5397 22.0833 56.675L47.1594 42.1482Z" fill="black"/>
<path opacity="0.12" d="M18.4516 56.3293C17.9328 55.8105 17.7599 54.9458 17.7599 53.9082V54.0811C17.7599 55.1188 18.1058 55.9835 18.6246 56.5023V56.3293H18.4516Z" fill="black"/>
<path opacity="0.12" d="M55.8063 37.3058L47.1594 42.1481L47.3324 42.321L55.8063 37.4788C57.0169 36.787 57.5357 35.9223 57.5357 35.0576C57.5357 35.9223 56.844 36.6141 55.8063 37.3058Z" fill="black"/>
<path opacity="0.25" d="M22.0834 13.6133L55.8064 32.8094C56.844 33.5012 57.5357 34.1929 57.5357 35.0576C57.5357 34.1929 57.0169 33.3283 55.8064 32.6365L22.0834 13.4403C19.6622 12.0568 17.7599 13.2674 17.7599 16.0344V16.2073C17.7599 13.4403 19.6622 12.2298 22.0834 13.6133Z" fill="white"/>
<path d="M73.2732 25.1999H72.0626V21.7412H73.1003C73.9649 21.0494 74.4838 19.6659 74.4838 17.7636V12.5754H81.4013V21.7412H82.6119V25.1999H81.4013V22.9517H73.4461V25.1999H73.2732ZM75.6943 17.7636C75.6943 19.32 75.3485 20.7035 74.6567 21.7412H79.8449V13.9589H75.5214V17.7636H75.6943Z" fill="white" stroke="white" stroke-width="0.2" stroke-miterlimit="10"/>
<path d="M92.8153 21.5683C91.7777 22.606 90.5671 23.1248 89.0106 23.1248C87.4542 23.1248 86.2436 22.606 85.206 21.5683C84.1684 20.5307 83.6495 19.3201 83.6495 17.7637C83.6495 16.2072 84.1684 14.9967 85.206 13.959C86.2436 12.9214 87.4542 12.4026 89.0106 12.4026C90.5671 12.4026 91.7777 12.9214 92.8153 13.959C93.8529 14.9967 94.3717 16.2072 94.3717 17.7637C94.3717 19.3201 93.8529 20.5307 92.8153 21.5683ZM86.2436 20.7036C86.9354 21.3954 87.973 21.9142 89.0106 21.9142C90.0483 21.9142 91.0859 21.5683 91.7776 20.7036C92.4694 20.0119 92.9882 18.9743 92.9882 17.7637C92.9882 16.5531 92.6423 15.5155 91.7776 14.8237C91.0859 14.132 90.0483 13.6132 89.0106 13.6132C87.973 13.6132 86.9354 13.959 86.2436 14.8237C85.5519 15.5155 85.033 16.5531 85.033 17.7637C85.033 18.9743 85.3789 20.0119 86.2436 20.7036Z" fill="white" stroke="white" stroke-width="0.2" stroke-miterlimit="10"/>
<path d="M101.116 23.1248C99.5599 23.1248 98.3493 22.606 97.3117 21.5683C96.2741 20.5307 95.7552 19.3201 95.7552 17.7637C95.7552 16.2072 96.2741 14.9967 97.3117 13.959C98.3493 12.9214 99.5599 12.4026 101.116 12.4026C102.673 12.4026 103.883 12.9214 104.921 14.132L104.056 14.9967C103.365 14.132 102.327 13.6132 101.116 13.6132C99.9058 13.6132 99.0411 13.959 98.1764 14.8237C97.3117 15.5155 96.9658 16.5531 96.9658 17.7637C96.9658 18.9743 97.3117 20.0119 98.1764 20.7036C98.8681 21.3954 99.9058 21.9142 101.116 21.9142C102.327 21.9142 103.365 21.3954 104.229 20.3578L105.094 21.2225C104.575 21.7413 104.056 22.2601 103.365 22.606C102.673 22.9518 101.981 23.1248 101.116 23.1248Z" fill="white" stroke="white" stroke-width="0.2" stroke-miterlimit="10"/>
<path d="M110.628 22.952H109.244V13.7863H106.304V12.5757H113.395V13.7863H110.455V22.952H110.628Z" fill="white" stroke="white" stroke-width="0.2" stroke-miterlimit="10"/>
<path d="M122.561 12.5754L118.583 21.3953C118.064 22.6059 117.2 23.2976 116.162 23.2976C115.816 23.2976 115.47 23.2976 115.124 23.1247L115.47 21.9141C115.643 22.0871 115.989 22.0871 116.162 22.0871C116.508 22.0871 116.681 22.0871 116.854 21.9141C117.027 21.7412 117.2 21.5682 117.372 21.2224L117.718 20.3577L114.26 12.7484H115.816L118.41 18.6283L120.831 12.7484H122.561V12.5754Z" fill="white" stroke="white" stroke-width="0.2" stroke-miterlimit="10"/>
<path d="M124.117 22.952V12.5757H131.553V22.952H130.17V13.7863H125.328V22.952H124.117Z" fill="white" stroke="white" stroke-width="0.2" stroke-miterlimit="10"/>
<path d="M133.975 22.952V12.5757H135.358V17.0721H140.546V12.5757H141.93V22.952H140.546V18.2827H135.358V22.952H133.975Z" fill="white" stroke="white" stroke-width="0.2" stroke-miterlimit="10"/>
<path d="M152.825 21.5683C151.787 22.606 150.577 23.1248 149.02 23.1248C147.464 23.1248 146.253 22.606 145.216 21.5683C144.178 20.5307 143.659 19.3201 143.659 17.7637C143.659 16.2072 144.178 14.9967 145.216 13.959C146.253 12.9214 147.464 12.4026 149.02 12.4026C150.577 12.4026 151.787 12.9214 152.825 13.959C153.862 14.9967 154.381 16.2072 154.381 17.7637C154.208 19.3201 153.69 20.5307 152.825 21.5683ZM146.08 20.7036C146.772 21.3954 147.81 21.9142 148.847 21.9142C149.885 21.9142 150.923 21.5683 151.614 20.7036C152.306 20.0119 152.825 18.9743 152.825 17.7637C152.825 16.5531 152.479 15.5155 151.614 14.8237C150.923 14.132 149.885 13.6132 148.847 13.6132C147.81 13.6132 146.772 13.959 146.08 14.8237C145.388 15.5155 144.87 16.5531 144.87 17.7637C144.87 18.9743 145.388 20.0119 146.08 20.7036Z" fill="white" stroke="white" stroke-width="0.2" stroke-miterlimit="10"/>
<path d="M159.742 22.952V12.5757H163.547C164.412 12.5757 165.104 12.9216 165.622 13.4404C166.141 13.9592 166.487 14.6509 166.487 15.5156C166.487 16.0345 166.314 16.3803 166.141 16.8991C165.968 17.245 165.622 17.5909 165.104 17.7638C165.622 17.9368 165.968 18.2827 166.314 18.6285C166.66 18.9744 166.833 19.4932 166.833 20.185C166.833 21.0497 166.487 21.7414 165.968 22.2602C165.276 22.7791 164.585 23.1249 163.72 23.1249H159.742V22.952ZM161.126 17.0721H163.547C164.066 17.0721 164.412 16.8991 164.758 16.5533C165.104 16.2074 165.276 15.8615 165.276 15.5156C165.276 15.1698 165.104 14.8239 164.758 14.478C164.412 14.1321 164.066 13.9592 163.547 13.9592H161.126V17.0721ZM161.126 21.7414H163.893C164.412 21.7414 164.758 21.5685 165.104 21.2226C165.449 20.8767 165.622 20.5309 165.622 20.012C165.622 19.6662 165.449 19.1473 165.104 18.8015C164.758 18.4556 164.412 18.2827 163.893 18.2827H161.299V21.7414H161.126Z" fill="white" stroke="white" stroke-width="0.2" stroke-miterlimit="10"/>
<defs>
<linearGradient id="paint0_linear" x1="38.1661" y1="15.5325" x2="9.14285" y2="44.5557" gradientUnits="userSpaceOnUse">
<stop stop-color="#00A0FF"/>
<stop offset="0.00657445" stop-color="#00A1FF"/>
<stop offset="0.2601" stop-color="#00BEFF"/>
<stop offset="0.5122" stop-color="#00D2FF"/>
<stop offset="0.7604" stop-color="#00DFFF"/>
<stop offset="1" stop-color="#00E3FF"/>
</linearGradient>
<linearGradient id="paint1_linear" x1="58.9787" y1="35.0603" x2="17.1329" y2="35.0603" gradientUnits="userSpaceOnUse">
<stop stop-color="#FFE000"/>
<stop offset="0.4087" stop-color="#FFBD00"/>
<stop offset="0.7754" stop-color="#FFA500"/>
<stop offset="1" stop-color="#FF9C00"/>
</linearGradient>
<linearGradient id="paint2_linear" x1="43.4014" y1="39.0285" x2="4.04357" y2="78.3863" gradientUnits="userSpaceOnUse">
<stop stop-color="#FF3A44"/>
<stop offset="1" stop-color="#C31162"/>
</linearGradient>
<linearGradient id="paint3_linear" x1="13.0858" y1="0.774892" x2="30.6609" y2="18.3498" gradientUnits="userSpaceOnUse">
<stop stop-color="#32A071"/>
<stop offset="0.0685" stop-color="#2DA771"/>
<stop offset="0.4762" stop-color="#15CF74"/>
<stop offset="0.8009" stop-color="#06E775"/>
<stop offset="1" stop-color="#00F076"/>
</linearGradient>
</defs>
</svg>
