<svg width="41" height="41" viewBox="0 0 41 41" fill="none" xmlns="http://www.w3.org/2000/svg">
<path d="M6.17102 1.03613H34.1695C36.9309 1.03613 39.1695 3.27471 39.1695 6.03613V34.0346C39.1695 36.796 36.9309 39.0346 34.1695 39.0346H6.17103C3.4096 39.0346 1.17102 36.796 1.17102 34.0346V6.03614C1.17102 3.27472 3.4096 1.03613 6.17102 1.03613Z" stroke="white" stroke-opacity="0.3" stroke-width="2"/>
<path d="M23.7366 11.4175H16.6041C13.7054 11.4175 11.3472 13.7757 11.3472 16.6744V23.8069C11.3472 26.7056 13.7054 29.0639 16.6041 29.0639H23.7366C26.6353 29.0639 28.9936 26.7056 28.9936 23.8069V16.6744C28.9935 13.7757 26.6353 11.4175 23.7366 11.4175ZM27.2183 23.8069C27.2183 25.7298 25.6595 27.2886 23.7366 27.2886H16.6041C14.6812 27.2886 13.1224 25.7298 13.1224 23.8069V16.6744C13.1224 14.7515 14.6812 13.1927 16.6041 13.1927H23.7366C25.6595 13.1927 27.2183 14.7515 27.2183 16.6744V23.8069Z" fill="white"/>
<path d="M20.1706 15.6763C17.654 15.6763 15.6066 17.7237 15.6066 20.2402C15.6066 22.7568 17.654 24.8042 20.1706 24.8042C22.6871 24.8042 24.7345 22.7568 24.7345 20.2402C24.7345 17.7236 22.6871 15.6763 20.1706 15.6763ZM20.1706 23.029C18.6304 23.029 17.3818 21.7805 17.3818 20.2403C17.3818 18.7001 18.6304 17.4515 20.1706 17.4515C21.7108 17.4515 22.9593 18.7001 22.9593 20.2403C22.9593 21.7804 21.7107 23.029 20.1706 23.029Z" fill="white"/>
<path d="M24.7433 16.8042C25.3473 16.8042 25.8369 16.3146 25.8369 15.7106C25.8369 15.1066 25.3473 14.6169 24.7433 14.6169C24.1393 14.6169 23.6497 15.1066 23.6497 15.7106C23.6497 16.3146 24.1393 16.8042 24.7433 16.8042Z" fill="white"/>
</svg>
