<svg width="41" height="41" viewBox="0 0 41 41" fill="none" xmlns="http://www.w3.org/2000/svg">
<path d="M6.40833 1.03467H34.4068C37.1682 1.03467 39.4068 3.27325 39.4068 6.03467V34.0331C39.4068 36.7946 37.1682 39.0331 34.4068 39.0331H6.40833C3.64691 39.0331 1.40833 36.7946 1.40833 34.0331V6.03468C1.40833 3.27325 3.6469 1.03467 6.40833 1.03467Z" stroke="white" stroke-opacity="0.3" stroke-width="2"/>
<path d="M15.7019 16.5049H12.1726V28.8574H15.7019V16.5049Z" fill="white"/>
<path d="M15.702 11.2104H12.1727V14.7397H15.702V11.2104Z" fill="white"/>
<path d="M28.0543 28.8574H24.525V21.7988C24.525 21.3308 24.3391 20.882 24.0081 20.551C23.6772 20.2201 23.2284 20.0342 22.7604 20.0342C22.2923 20.0342 21.8435 20.2201 21.5126 20.551C21.1816 20.882 20.9957 21.3308 20.9957 21.7988V28.8574H17.4664V16.5049H20.9957V17.1702C21.9204 16.8825 22.521 16.5049 23.6427 16.5049C26.0361 16.5049 28.0543 18.6548 28.0543 21.1924V28.8574Z" fill="white"/>
</svg>
