<svg width="83" height="51" viewBox="0 0 83 51" fill="none" xmlns="http://www.w3.org/2000/svg">
<path fill-rule="evenodd" clip-rule="evenodd" d="M83 48.6462C82.998 48.7404 82.9744 48.8331 82.9307 48.9183C82.887 49.0034 82.8242 49.0791 82.7464 49.1403C82.5745 49.2739 82.3561 49.346 82.1312 49.3433C81.9075 49.3461 81.6903 49.2739 81.5201 49.1403C81.4417 49.0796 81.3784 49.004 81.3347 48.9188C81.2909 48.8335 81.2677 48.7405 81.2665 48.6462V0.697212C81.2677 0.602882 81.2909 0.509896 81.3347 0.424614C81.3784 0.339332 81.4417 0.263768 81.5201 0.20309C81.6903 0.069417 81.9075 -0.00272596 82.1312 7.88106e-05C82.3561 -0.00261294 82.5745 0.0694597 82.7464 0.20309C82.8242 0.264258 82.887 0.339924 82.9307 0.425097C82.9744 0.51027 82.998 0.603014 83 0.697212V48.6462Z" fill="#F47B20"/>
<path fill-rule="evenodd" clip-rule="evenodd" d="M45.312 14.8237H39.0764C38.9142 14.8223 38.7575 14.8777 38.6379 14.9787C38.5183 15.0796 38.4447 15.2187 38.4321 15.3677C38.1369 17.7502 38.1245 19.7611 37.7628 21.4388C37.4565 22.992 37.0498 24.5269 36.5448 26.0353C36.1 27.2687 35.439 29.1226 35.1148 29.7508C34.7905 30.379 34.2251 31.2179 34.0256 31.6201C33.8261 32.0222 34.4829 31.961 34.9111 31.9571H45.3037C45.4783 31.9531 45.6443 31.8864 45.7663 31.7712C45.8882 31.6559 45.9564 31.5014 45.9564 31.3404V15.4251C45.9553 15.2672 45.8874 15.116 45.767 15.0037C45.6466 14.8913 45.4834 14.8267 45.312 14.8237ZM52.9361 39.4187C52.935 39.6482 52.8815 39.875 52.7791 40.0841C52.6767 40.2933 52.5276 40.4803 52.3417 40.633C51.9507 40.963 51.4397 41.146 50.9095 41.146C50.3793 41.146 49.8684 40.963 49.4774 40.633C49.2916 40.4745 49.143 40.2826 49.0408 40.0692C48.9385 39.8557 48.8848 39.6252 48.883 39.3919C48.883 38.2045 48.8497 37.0937 48.8539 35.9024C48.8534 35.8225 48.8354 35.7434 48.801 35.6701C48.7665 35.5967 48.7164 35.5304 48.6535 35.4754C48.5906 35.4203 48.5163 35.3775 48.435 35.3495C48.3537 35.3215 48.2671 35.3089 48.1804 35.3126H32.4709C32.2974 35.3136 32.1314 35.3778 32.0091 35.4912C31.8868 35.6046 31.8182 35.7579 31.8182 35.9178C31.8182 37.0669 31.7933 38.216 31.7933 39.3919C31.7914 39.6252 31.7377 39.8557 31.6354 40.0692C31.5332 40.2826 31.3846 40.4745 31.1988 40.633C30.8078 40.963 30.2969 41.146 29.7667 41.146C29.2365 41.146 28.7255 40.963 28.3346 40.633C28.148 40.4751 27.9989 40.2833 27.8966 40.0697C27.7943 39.8561 27.741 39.6254 27.7401 39.3919C27.7401 37.2546 27.7401 35.121 27.7651 32.9798C27.7248 32.6968 27.8004 32.41 27.9771 32.1755C28.2237 32.0289 28.516 31.9615 28.8085 31.9839H29.1327C29.2479 31.9875 29.3621 31.9623 29.463 31.9111C29.564 31.8599 29.6481 31.7844 29.7064 31.6928C30.2011 31.0072 30.4672 30.1607 30.9535 29.3371C31.5147 28.4063 32.0094 26.7708 32.4916 25.365C33.0239 23.6104 33.4527 21.8305 33.7762 20.0331C34.1919 18.0911 34.1919 15.766 34.5245 13.0733C34.5245 13.0311 34.5245 12.989 34.5245 12.9469C34.5911 12.5481 34.8131 12.1854 35.149 11.9266C35.4849 11.6679 35.9117 11.5308 36.3494 11.5411H48.4049C48.8886 11.5296 49.358 11.6932 49.7123 11.9968C50.0667 12.3004 50.2779 12.7198 50.3005 13.1652L50.3379 31.4094C50.3466 31.5669 50.422 31.7149 50.5479 31.8217C50.6739 31.9284 50.8403 31.9853 51.0114 31.9801H51.901C52.1792 31.9563 52.4576 32.0241 52.6867 32.1716C52.784 32.2821 52.8556 32.4098 52.8971 32.5469C52.9386 32.684 52.949 32.8274 52.9278 32.9683V39.4379L52.9361 39.4187Z" fill="#F47B20"/>
<path fill-rule="evenodd" clip-rule="evenodd" d="M74.9727 33.6234C74.968 33.8588 74.9089 34.0906 74.7992 34.3033C74.6895 34.516 74.5318 34.7047 74.3367 34.8568C73.9072 35.1881 73.3649 35.3697 72.8048 35.3697C72.2446 35.3697 71.7024 35.1881 71.2729 34.8568C71.0759 34.7045 70.917 34.5148 70.8072 34.3005C70.6974 34.0863 70.6393 33.8526 70.6369 33.6157V33.4395C70.6369 33.3208 70.6701 33.1407 70.5745 33.0335C70.4789 32.9262 70.296 33.0565 70.138 33.1714C69.872 33.3591 69.5685 33.5812 69.2193 33.8379C68.6833 34.2339 68.1053 34.5791 67.4941 34.8682C66.7832 35.221 66.0371 35.5096 65.2659 35.7301C64.2795 35.9564 63.264 36.0569 62.2479 36.0289C61.2061 36.0342 60.1738 35.8453 59.2132 35.4734C58.2709 35.1103 57.414 34.5822 56.6899 33.9183C55.9687 33.2167 55.4038 32.3917 55.0271 31.4898C54.608 30.524 54.3963 29.4925 54.4035 28.4523C54.3556 26.9785 54.7482 25.521 55.5384 24.2389C56.3931 22.9964 57.6451 22.0288 59.1218 21.4695C60.7585 20.8114 62.4934 20.3839 64.2682 20.2016C65.8562 20.0127 67.5454 19.8633 69.3357 19.7535C69.7514 19.7267 70.3625 19.7114 70.508 19.5237C70.6535 19.336 70.5911 18.9912 70.6327 18.589C70.5996 17.9201 70.4494 17.2604 70.1879 16.6355C69.901 16.0885 69.4456 15.6316 68.8784 15.3217C68.2586 14.9743 67.5657 14.7524 66.8456 14.6705C66.0194 14.5627 65.1858 14.5102 64.3514 14.5135C63.1596 14.5521 61.9741 14.6906 60.8096 14.9272C59.6955 15.1417 58.8765 15.3677 58.2114 15.5247C57.9824 15.5962 57.7369 15.6101 57.5001 15.5649C57.2634 15.5198 57.044 15.4174 56.8645 15.2681C56.4486 14.9843 56.1542 14.5749 56.0326 14.1114C55.9111 13.6479 55.9701 13.1598 56.1994 12.7324C56.291 12.5139 56.44 12.3199 56.633 12.1675C56.8259 12.0151 57.0569 11.9091 57.3052 11.859C57.962 11.7135 58.7477 11.5603 59.9241 11.3572C61.3944 11.1183 62.8834 10.9902 64.3763 10.9742C65.8835 10.9515 67.3889 11.0799 68.866 11.3572C70.0551 11.6008 71.1754 12.0719 72.1542 12.74C73.0916 13.3974 73.8185 14.2762 74.2577 15.2834C74.7533 16.4955 74.989 17.7846 74.9519 19.0793V33.6349L74.9727 33.6234ZM70.641 28.5864V24.2351C70.641 23.9248 70.745 23.377 70.5038 23.1127C70.2627 22.8484 69.8595 22.9749 69.3149 22.9902C68.7703 23.0055 67.6854 23.1319 66.7209 23.2238C65.4248 23.327 64.1418 23.5398 62.8881 23.8597C61.8121 24.1391 60.8262 24.6558 60.0156 25.365C59.624 25.738 59.321 26.1819 59.1256 26.6685C58.9302 27.1552 58.8468 27.6739 58.8807 28.1919C58.8807 29.5593 59.2964 30.5935 60.1278 31.2868C60.9592 31.9801 62.1814 32.3364 63.786 32.3364C65.0882 32.3538 66.3744 32.0707 67.5274 31.5128C68.4041 31.0676 69.2384 30.5551 70.0216 29.9807C70.2329 29.8377 70.4016 29.648 70.5122 29.4291C70.6103 29.1605 70.6512 28.8769 70.6327 28.5941L70.641 28.5864Z" fill="#F47B20"/>
<path d="M12.8246 30.3254L12.8495 30.3484C13.8331 30.5414 14.8369 30.6339 15.8426 30.6241C16.7669 30.6279 17.6887 30.5354 18.5904 30.3484C18.8149 30.2986 19.2805 30.1607 19.9747 29.9653L21.147 29.5823C21.4608 29.4937 21.7874 29.4498 22.1156 29.452C22.5075 29.4476 22.8962 29.5171 23.2579 29.656C23.6196 29.795 23.9467 30.0006 24.2191 30.2603C24.4917 30.5106 24.706 30.8096 24.849 31.1389C24.9919 31.4682 25.0605 31.8209 25.0505 32.1755C25.0622 32.5336 24.9945 32.8902 24.8515 33.2235C24.7086 33.5568 24.4934 33.8596 24.2191 34.1136C23.8994 34.3839 23.5307 34.6004 23.1299 34.7533C22.4493 34.9743 21.7553 35.1584 21.0514 35.3049C20.1703 35.5208 19.2765 35.6897 18.3742 35.8105C17.2575 35.9404 16.1325 35.9992 15.007 35.9867C14.2504 35.9867 13.5271 35.9561 12.8162 35.8986C9.01945 35.6152 6.03883 34.5656 3.87439 32.75C1.29146 30.6178 0 27.5803 0 23.6375C0 19.765 1.19724 16.6892 3.60002 14.3871C5.84207 12.2344 8.91691 11.0853 12.8246 10.9397C13.1155 10.9397 13.4065 10.9397 13.6975 10.9397C17.6329 10.9397 20.5941 11.9165 22.5812 13.87C24.5212 15.7852 25.505 18.4984 25.5327 22.0096V22.2164C25.5423 22.5692 25.4715 22.92 25.3247 23.2459C25.1779 23.5719 24.9584 23.8658 24.6805 24.1086C24.4104 24.3644 24.0871 24.5675 23.73 24.7056C23.3729 24.8438 22.9893 24.9144 22.602 24.913H8.62176C8.54247 24.9112 8.46378 24.9262 8.39172 24.9567C8.31967 24.9872 8.25615 25.0326 8.20605 25.0892C8.16325 25.1238 8.12862 25.1662 8.10431 25.2136C8.07999 25.261 8.06652 25.3126 8.06471 25.365V25.4531C8.15941 26.2181 8.39414 26.9628 8.75894 27.6556C9.14627 28.3666 9.72617 28.9735 10.4426 29.4176C11.1616 29.8647 11.9699 30.1759 12.8204 30.333L12.8246 30.3254ZM12.8246 15.6664C12.1927 15.6569 11.5655 15.7672 10.9819 15.9906C10.3983 16.214 9.87089 16.5457 9.43239 16.9649C8.64239 17.7709 8.15675 18.7908 8.04808 19.8722C8.01685 19.9529 8.01585 20.0408 8.04524 20.1221C8.07463 20.2033 8.13271 20.2731 8.21021 20.3204C8.32108 20.4049 8.46128 20.4497 8.60513 20.4468H17.0689C17.1472 20.4474 17.2248 20.4327 17.2964 20.4037C17.3681 20.3746 17.4322 20.3319 17.4846 20.2782C17.5603 20.1867 17.6025 20.0754 17.6052 19.9603V19.8952C17.5594 18.8112 17.1579 17.7654 16.4537 16.896C15.7303 16.0878 14.5955 15.6664 13.0781 15.6664H12.8246Z" fill="#EE2529"/>
<path d="M31.7724 47.1906H30.9826C30.9623 47.1847 30.9405 47.1847 30.9202 47.1906C30.9114 47.1979 30.9043 47.2067 30.8993 47.2166C30.8943 47.2265 30.8915 47.2372 30.8911 47.2481V49.7072C30.8911 49.8748 30.8189 50.0356 30.6902 50.1541C30.5616 50.2726 30.3871 50.3392 30.2052 50.3392C30.0233 50.3392 29.8488 50.2726 29.7202 50.1541C29.5916 50.0356 29.5193 49.8748 29.5193 49.7072V47.2672C29.5201 47.2556 29.5179 47.244 29.5129 47.2333C29.5078 47.2227 29.5 47.2133 29.4902 47.2059C29.4739 47.2015 29.4566 47.2015 29.4403 47.2059H28.6338C28.572 47.2069 28.5106 47.1962 28.4534 47.1745C28.3962 47.1527 28.3444 47.1204 28.3013 47.0795C28.2555 47.039 28.2194 46.9901 28.1951 46.9361C28.1707 46.882 28.1588 46.8239 28.1599 46.7654C28.1593 46.707 28.1715 46.6491 28.1957 46.5951C28.22 46.5411 28.2559 46.4922 28.3013 46.4513C28.3435 46.4089 28.3949 46.3751 28.4522 46.352C28.5095 46.3289 28.5713 46.3171 28.6338 46.3173H31.7724C31.8363 46.3165 31.8996 46.328 31.9583 46.3511C32.017 46.3742 32.0698 46.4083 32.1133 46.4513C32.2034 46.5349 32.2541 46.6477 32.2547 46.7654C32.2549 46.8238 32.2425 46.8816 32.2182 46.9356C32.1939 46.9895 32.1583 47.0384 32.1133 47.0795C32.0688 47.1208 32.0156 47.1533 31.957 47.175C31.8984 47.1968 31.8356 47.2073 31.7724 47.2059V47.1906Z" fill="#ED1C24"/>
<path d="M35.2977 49.5042C35.4658 49.5362 35.6372 49.5516 35.809 49.5501C35.9669 49.5504 36.1244 49.535 36.2787 49.5042L36.5157 49.4352L36.7152 49.3701C36.7689 49.3542 36.8251 49.3464 36.8815 49.3471C37.0149 49.3471 37.1428 49.396 37.2372 49.4829C37.3315 49.5698 37.3845 49.6877 37.3845 49.8106C37.3858 49.8723 37.3735 49.9336 37.3485 49.9909C37.3235 50.0481 37.2863 50.1002 37.239 50.1439C37.1839 50.1894 37.1206 50.2257 37.0519 50.2511C36.9364 50.2898 36.8184 50.3218 36.6986 50.3469C36.5481 50.3834 36.3954 50.4115 36.2413 50.4311C36.051 50.453 35.8594 50.4632 35.6676 50.4618C35.543 50.4677 35.4181 50.4677 35.2935 50.4618C34.7346 50.4469 34.1972 50.2594 33.7678 49.9294C33.5418 49.7298 33.3657 49.4874 33.2515 49.2188C33.1374 48.9503 33.088 48.6621 33.1069 48.3742C33.0907 48.087 33.1364 47.7997 33.2413 47.5289C33.3461 47.258 33.5081 47.009 33.718 46.7961C33.9252 46.6067 34.1712 46.457 34.4416 46.3557C34.712 46.2545 35.0016 46.2037 35.2935 46.2062H35.4431C35.7201 46.1873 35.9983 46.2222 36.2597 46.3086C36.521 46.395 36.7598 46.5311 36.9605 46.708C37.3142 47.0955 37.4941 47.5928 37.4635 48.0984V48.1329C37.465 48.1929 37.4529 48.2526 37.4278 48.308C37.4027 48.3634 37.3653 48.4134 37.318 48.4547C37.2717 48.4988 37.2161 48.5338 37.1546 48.5575C37.0932 48.5812 37.0271 48.5931 36.9605 48.5925H34.5826C34.5691 48.5922 34.5556 48.5949 34.5434 48.6002C34.5311 48.6055 34.5204 48.6134 34.512 48.6232C34.5077 48.6303 34.5048 48.6381 34.5036 48.6462C34.5199 48.7788 34.5592 48.9081 34.62 49.0292C34.6865 49.1509 34.7869 49.254 34.911 49.328C35.0365 49.406 35.178 49.4594 35.3268 49.485L35.2977 49.5042ZM35.2977 46.9991C35.1899 46.9974 35.083 47.0163 34.9835 47.0545C34.8841 47.0928 34.7943 47.1495 34.7198 47.2213C34.5848 47.3595 34.5018 47.5341 34.4829 47.7192C34.4809 47.7268 34.4809 47.7346 34.4829 47.7422C34.4838 47.7528 34.4873 47.7632 34.493 47.7724C34.4988 47.7817 34.5066 47.7897 34.5161 47.7958C34.5248 47.8037 34.5353 47.8099 34.5467 47.8138C34.5582 47.8178 34.5704 47.8195 34.5826 47.8188H36.0251C36.0393 47.8194 36.0535 47.817 36.0665 47.8116C36.0795 47.8063 36.0909 47.7983 36.1 47.7882C36.1057 47.7707 36.1057 47.752 36.1 47.7345C36.0925 47.5492 36.0244 47.3703 35.9046 47.2213C35.8336 47.1475 35.7456 47.0893 35.6471 47.0509C35.5485 47.0125 35.442 46.9948 35.3351 46.9991H35.2977Z" fill="#ED1C24"/>
<path d="M42.9134 49.7608C42.9034 49.906 42.8353 50.0425 42.7222 50.1439C42.6641 50.2031 42.5937 50.2509 42.5151 50.2845C42.4366 50.318 42.3515 50.3367 42.2649 50.3392H42.2109C42.1251 50.3394 42.0402 50.324 41.961 50.2937C41.8818 50.2635 41.8099 50.2191 41.7494 50.163C41.6865 50.1102 41.6366 50.0457 41.6029 49.9737C41.5692 49.9017 41.5525 49.8239 41.554 49.7455V47.2634C41.5548 47.253 41.553 47.2425 41.5488 47.2329C41.5446 47.2232 41.538 47.2145 41.5296 47.2075C41.5212 47.2005 41.5112 47.1953 41.5003 47.1924C41.4894 47.1895 41.4779 47.1889 41.4667 47.1906H40.5439C40.5337 47.1896 40.5234 47.1905 40.5136 47.1932C40.5039 47.196 40.4948 47.2005 40.487 47.2066C40.4792 47.2127 40.4729 47.2202 40.4683 47.2287C40.4638 47.2371 40.4612 47.2464 40.4607 47.2558V48.6079C40.4699 48.8904 40.4292 49.1724 40.3402 49.4429C40.2818 49.6405 40.1719 49.822 40.0201 49.9715C39.8825 50.0988 39.7145 50.1945 39.5295 50.2511C39.3273 50.307 39.1171 50.3341 38.906 50.3316H38.6815C38.6207 50.3312 38.5606 50.3195 38.5049 50.2971C38.4491 50.2747 38.3989 50.2421 38.3572 50.2013C38.2704 50.1177 38.2214 50.0068 38.2201 49.8911V49.8566C38.221 49.797 38.2356 49.7382 38.2628 49.6841C38.29 49.63 38.3293 49.5817 38.378 49.5425C38.4573 49.4704 38.5621 49.427 38.6732 49.4199C38.7822 49.4195 38.8867 49.3796 38.9642 49.3089C39.0544 49.2288 39.1142 49.124 39.1346 49.0101C39.1656 48.8702 39.1796 48.7276 39.1762 48.5849V46.9225C39.1751 46.8371 39.1934 46.7525 39.2299 46.674C39.2664 46.5955 39.3203 46.5249 39.3882 46.4667C39.453 46.4056 39.5307 46.3575 39.6165 46.3252C39.7023 46.2929 39.7944 46.2772 39.887 46.279H42.2067C42.3933 46.2788 42.5724 46.3462 42.7056 46.4667C42.7721 46.5256 42.8248 46.5965 42.8605 46.6748C42.8963 46.7532 42.9143 46.8375 42.9134 46.9225V49.7455V49.7608Z" fill="#ED1C24"/>
<path d="M46.2058 49.5042C46.374 49.5361 46.5454 49.5516 46.7171 49.5501C46.875 49.5504 47.0325 49.535 47.1869 49.5042L47.4197 49.4352L47.6234 49.3701C47.6757 49.3545 47.7305 49.3467 47.7855 49.3471C47.8519 49.3466 47.9177 49.3582 47.9793 49.3813C48.0408 49.4044 48.0967 49.4384 48.1439 49.4815C48.191 49.5246 48.2284 49.5759 48.254 49.6324C48.2795 49.6888 48.2926 49.7494 48.2926 49.8106C48.2939 49.8723 48.2817 49.9336 48.2567 49.9909C48.2317 50.0481 48.1944 50.1002 48.1471 50.1439C48.092 50.1894 48.0287 50.2257 47.9601 50.2511C47.8446 50.2898 47.7266 50.3218 47.6067 50.3469C47.4563 50.3834 47.3036 50.4115 47.1495 50.4311C46.9592 50.453 46.7675 50.4632 46.5758 50.4618C46.4512 50.4677 46.3263 50.4677 46.2017 50.4618C45.6413 50.4477 45.1024 50.2602 44.6719 49.9294C44.4459 49.7298 44.2697 49.4874 44.1556 49.2188C44.0414 48.9503 43.9921 48.6621 44.0109 48.3742C43.9946 48.0867 44.0406 47.7991 44.1462 47.5281C44.2519 47.2572 44.415 47.0083 44.6261 46.7961C44.8334 46.6067 45.0793 46.457 45.3498 46.3557C45.6202 46.2545 45.9098 46.2037 46.2017 46.2062H46.3513C46.6276 46.1873 46.9051 46.2223 47.1658 46.3087C47.4265 46.3952 47.6646 46.5312 47.8645 46.708C48.2197 47.095 48.4011 47.5923 48.3716 48.0984V48.1329C48.3732 48.1929 48.361 48.2526 48.3359 48.308C48.3109 48.3634 48.2735 48.4134 48.2261 48.4546C48.1792 48.4991 48.1229 48.5342 48.0607 48.558C47.9985 48.5817 47.9318 48.5934 47.8645 48.5925H45.4866C45.4731 48.5922 45.4597 48.5949 45.4474 48.6002C45.4351 48.6055 45.4244 48.6134 45.416 48.6232C45.4087 48.6289 45.4027 48.6359 45.3984 48.6438C45.3941 48.6517 45.3916 48.6603 45.391 48.6691C45.4073 48.8018 45.4466 48.9311 45.5074 49.0522C45.5727 49.1734 45.6717 49.2765 45.7943 49.351C45.92 49.4285 46.0614 49.4819 46.21 49.508L46.2058 49.5042ZM46.2058 46.9991C46.0981 46.9974 45.9911 47.0163 45.8917 47.0545C45.7923 47.0928 45.7025 47.1495 45.628 47.2213C45.493 47.3595 45.4099 47.5341 45.391 47.7192C45.3891 47.7268 45.3891 47.7346 45.391 47.7422C45.3909 47.753 45.394 47.7637 45.3998 47.7732C45.4056 47.7826 45.4141 47.7904 45.4243 47.7958C45.433 47.8037 45.4434 47.8099 45.4549 47.8138C45.4664 47.8178 45.4786 47.8195 45.4908 47.8188H46.9333C46.9475 47.8194 46.9616 47.8169 46.9746 47.8116C46.9876 47.8063 46.9991 47.7983 47.0081 47.7882C47.021 47.7728 47.0283 47.754 47.0289 47.7345C47.0215 47.5492 46.9534 47.3703 46.8335 47.2213C46.7598 47.1483 46.6692 47.0914 46.5685 47.055C46.4678 47.0185 46.3595 47.0034 46.2515 47.0106L46.2058 46.9991Z" fill="#ED1C24"/>
<path d="M53.3477 49.4467C53.3934 49.5228 53.4164 49.6087 53.4142 49.6957C53.4132 49.7549 53.4062 49.8139 53.3934 49.8719C53.3764 49.9523 53.3403 50.0283 53.2879 50.0945C53.2355 50.1607 53.1679 50.2155 53.0899 50.2549L53.04 50.2817C52.9433 50.3311 52.8347 50.3574 52.7241 50.3583C52.665 50.358 52.6063 50.3502 52.5495 50.3354C52.4669 50.3149 52.3897 50.2793 52.3226 50.2306C52.2554 50.1818 52.1997 50.1211 52.1587 50.0519C52.034 49.8451 51.8012 49.4429 51.4603 48.8492C51.4464 48.8338 51.4275 48.823 51.4063 48.8185C51.3943 48.8141 51.3809 48.8141 51.3689 48.8185L50.9282 49.2437C50.9222 49.2585 50.9222 49.2749 50.9282 49.2897C50.9282 49.3318 50.9282 49.4046 50.9282 49.5118V49.734C50.9182 49.8942 50.8444 50.0453 50.7209 50.1584C50.5973 50.2715 50.4328 50.3386 50.2589 50.3469H50.2007C50.0234 50.3459 49.8534 50.2814 49.7268 50.1668C49.6627 50.1114 49.6119 50.0443 49.5775 49.9698C49.5432 49.8953 49.5261 49.815 49.5273 49.734V46.9072C49.5257 46.8256 49.5427 46.7446 49.577 46.6694C49.6114 46.5942 49.6624 46.5265 49.7268 46.4705C49.789 46.4134 49.863 46.3684 49.9444 46.3382C50.0258 46.3079 50.113 46.293 50.2007 46.2943H50.2589C50.4328 46.3025 50.5973 46.3696 50.7209 46.4827C50.8444 46.5958 50.9182 46.747 50.9282 46.9072V47.5507C50.9282 47.5928 50.9282 47.6158 50.974 47.6196C50.9943 47.6177 51.0133 47.6096 51.028 47.5966L52.1255 46.4705C52.1752 46.4131 52.2385 46.3671 52.3106 46.3359C52.3826 46.3046 52.4616 46.2891 52.5412 46.2905H52.5828C52.7243 46.2876 52.8615 46.3357 52.9652 46.4245L53.0026 46.4552C53.0618 46.5029 53.1091 46.5619 53.1414 46.6279C53.1736 46.694 53.1901 46.7657 53.1897 46.8382V46.8727C53.1944 46.9942 53.1499 47.1129 53.065 47.2059L52.4497 47.8111C52.444 47.8273 52.444 47.8447 52.4497 47.8609C52.4478 47.8723 52.4478 47.884 52.4497 47.8954C53.04 48.8377 53.3587 49.3484 53.4059 49.4276L53.3477 49.4467Z" fill="#ED1C24"/>
<path d="M56.3199 47.114C56.2077 47.114 56.0788 47.114 55.9375 47.114C55.7058 47.1196 55.4763 47.1558 55.2557 47.2213C55.2116 47.2265 55.1669 47.2265 55.1227 47.2213C55.0577 47.222 54.9931 47.2105 54.9331 47.1874C54.8731 47.1644 54.8187 47.1303 54.7735 47.0872C54.689 47.0089 54.6389 46.9046 54.6328 46.7943C54.6267 46.684 54.6649 46.5755 54.7402 46.4897C54.8123 46.4103 54.9098 46.354 55.0188 46.3288L55.2807 46.2828C55.5812 46.2339 55.8859 46.2095 56.1911 46.21H56.3199C56.8503 46.1839 57.3771 46.3039 57.8331 46.5548C58.0063 46.678 58.1442 46.8384 58.2348 47.022C58.3254 47.2056 58.3659 47.4068 58.3527 47.6081V49.7034C58.3543 49.7875 58.337 49.8711 58.302 49.9489C58.2669 50.0267 58.2149 50.0969 58.149 50.1553C58.0849 50.2161 58.0079 50.2641 57.9228 50.2964C57.8377 50.3287 57.7464 50.3445 57.6544 50.343C57.5159 50.3453 57.3803 50.3063 57.2677 50.232C57.1546 50.1644 57.0662 50.067 57.0142 49.9523C57.0132 49.9469 57.0101 49.942 57.0055 49.9385C57.001 49.935 56.9952 49.9331 56.9892 49.9332L56.7772 50.0979C56.6835 50.1639 56.5833 50.2216 56.4779 50.2703C56.4366 50.2913 56.3935 50.3092 56.349 50.3239C56.2744 50.3521 56.1981 50.3764 56.1204 50.3967C55.9621 50.4284 55.8002 50.4426 55.6382 50.4388C55.4604 50.4435 55.2835 50.4139 55.1188 50.3519C54.9542 50.2899 54.8054 50.1968 54.682 50.0787C54.5556 49.9603 54.4565 49.8195 54.3908 49.6648C54.3251 49.51 54.294 49.3447 54.2996 49.1786C54.2868 48.9266 54.3532 48.6765 54.4908 48.4585C54.6294 48.267 54.8239 48.1156 55.052 48.0218C55.3288 47.9022 55.6252 47.8258 55.9292 47.7958L56.3449 47.746C56.5361 47.746 56.7315 47.7116 56.9393 47.7001C56.9514 47.699 56.9632 47.6958 56.9739 47.6905C56.9846 47.6853 56.994 47.6781 57.0017 47.6694C57.0089 47.6622 57.0144 47.6538 57.018 47.6446C57.0216 47.6353 57.0231 47.6256 57.0225 47.6158C57.0209 47.5365 56.9962 47.459 56.9508 47.3916C56.9054 47.3242 56.8412 47.2693 56.7647 47.2328C56.6332 47.1762 56.493 47.1387 56.349 47.1217L56.3199 47.114ZM56.3199 48.5313C56.2181 48.5494 56.118 48.5751 56.0206 48.6079C55.9121 48.6403 55.8157 48.7 55.7421 48.7802C55.6717 48.8703 55.6365 48.9797 55.6423 49.0905C55.634 49.162 55.6448 49.2343 55.6738 49.3011C55.7028 49.3678 55.7491 49.427 55.8086 49.4735C55.9557 49.5527 56.1249 49.59 56.295 49.5808H56.3199C56.4376 49.5741 56.553 49.5481 56.6608 49.5042C56.7712 49.4586 56.8735 49.3979 56.9643 49.3242C56.9753 49.3151 56.9841 49.3038 56.9898 49.2912C56.9956 49.2786 56.9982 49.265 56.9975 49.2514V48.5696C56.9964 48.5484 56.9876 48.5282 56.9726 48.5121C56.9572 48.4977 56.9363 48.4894 56.9144 48.4891C56.722 48.4966 56.5304 48.5158 56.3407 48.5466L56.3199 48.5313Z" fill="#ED1C24"/>
<path d="M59.6248 46.8957C59.623 46.8176 59.6392 46.7401 59.6721 46.6682C59.7051 46.5962 59.7541 46.5315 59.816 46.4782C59.8759 46.4225 59.9471 46.3782 60.0256 46.348C60.104 46.3177 60.1883 46.3021 60.2733 46.302H60.3357C60.4222 46.3037 60.5073 46.3224 60.5855 46.3567C60.6636 46.3911 60.7329 46.4403 60.7888 46.5012C60.9007 46.603 60.9674 46.7395 60.9759 46.8842V47.6273C60.9758 47.6464 60.9834 47.6648 60.9972 47.6789C61.011 47.6931 61.0301 47.702 61.0507 47.7039H62.3227C62.3327 47.705 62.3428 47.7041 62.3524 47.7013C62.3619 47.6986 62.3707 47.6939 62.3782 47.6878C62.3857 47.6816 62.3916 47.6741 62.3957 47.6656C62.3997 47.6572 62.4018 47.648 62.4017 47.6388V46.8727C62.3999 46.7941 62.416 46.716 62.4489 46.6434C62.4818 46.5708 62.5309 46.5054 62.593 46.4514C62.719 46.3418 62.8853 46.2802 63.0585 46.279H63.1084C63.1957 46.2802 63.2816 46.2986 63.3605 46.333C63.4394 46.3673 63.5093 46.4168 63.5657 46.4782C63.6784 46.5802 63.7478 46.7161 63.7611 46.8612V49.7264C63.7467 49.8712 63.6775 50.0068 63.5657 50.1094C63.5084 50.1695 63.4382 50.2179 63.3594 50.2516C63.2807 50.2852 63.1952 50.3033 63.1084 50.3048H63.0544C62.8815 50.3039 62.7158 50.2406 62.593 50.1286C62.5308 50.0754 62.4816 50.0107 62.4487 49.9387C62.4157 49.8668 62.3997 49.7891 62.4017 49.711V48.627C62.3987 48.6101 62.3889 48.5949 62.3743 48.5843C62.3597 48.5736 62.3413 48.5684 62.3227 48.5696H61.0756C61.0641 48.5692 61.0526 48.5711 61.0418 48.575C61.0311 48.579 61.0214 48.585 61.0133 48.5926C61.0046 48.5997 60.9977 48.6086 60.9934 48.6186C60.9891 48.6285 60.9873 48.6393 60.9883 48.65V49.711C60.9767 49.865 60.9051 50.0098 60.7867 50.1189C60.6683 50.228 60.511 50.294 60.344 50.3048H60.2775C60.1924 50.3047 60.1082 50.289 60.0297 50.2588C59.9512 50.2286 59.88 50.1843 59.8202 50.1286C59.7581 50.0754 59.7089 50.0107 59.6759 49.9387C59.6429 49.8668 59.6269 49.7891 59.629 49.711V46.8459L59.6248 46.8957Z" fill="#ED1C24"/>
<path d="M66.9288 47.114C66.8165 47.114 66.6877 47.114 66.5505 47.114C66.3175 47.1193 66.0865 47.1554 65.8646 47.2213C65.8204 47.2265 65.7757 47.2265 65.7315 47.2213C65.6665 47.2217 65.6021 47.2101 65.5421 47.1871C65.4821 47.1641 65.4277 47.1301 65.3823 47.0872C65.2979 47.0089 65.2478 46.9046 65.2417 46.7943C65.2355 46.684 65.2738 46.5755 65.3491 46.4896C65.4212 46.4103 65.5187 46.354 65.6276 46.3288L65.8895 46.2828C66.1901 46.2339 66.4947 46.2095 66.7999 46.21H66.9288C67.4592 46.1834 67.9861 46.3034 68.4419 46.5548C68.6152 46.678 68.7531 46.8384 68.8436 47.022C68.9342 47.2056 68.9747 47.4068 68.9616 47.6081V49.7034C68.9616 49.7877 68.9435 49.8712 68.9083 49.949C68.8732 50.0269 68.8217 50.0976 68.7568 50.157C68.6919 50.2165 68.6148 50.2635 68.5301 50.2954C68.4454 50.3274 68.3547 50.3435 68.2632 50.343C68.1247 50.3452 67.9891 50.3063 67.8766 50.2319C67.7634 50.1644 67.675 50.0669 67.623 49.9523C67.622 49.9469 67.619 49.942 67.6144 49.9385C67.6098 49.935 67.604 49.9331 67.5981 49.9332H67.5773L67.3653 50.0979C67.2716 50.1639 67.1714 50.2216 67.066 50.2703C67.0246 50.2913 66.9815 50.3092 66.9371 50.3239C66.8624 50.3521 66.7861 50.3764 66.7085 50.3967C66.5501 50.4284 66.3882 50.4426 66.2262 50.4388C66.0484 50.4435 65.8715 50.4139 65.7069 50.3519C65.5422 50.2899 65.3934 50.1968 65.2701 50.0787C65.1437 49.9603 65.0446 49.8195 64.9789 49.6647C64.9131 49.51 64.8821 49.3447 64.8877 49.1786C64.8769 48.9268 64.9432 48.6773 65.0789 48.4585C65.2174 48.267 65.412 48.1156 65.6401 48.0218C65.9168 47.9022 66.2133 47.8258 66.5172 47.7958L66.9329 47.746C67.1242 47.746 67.3195 47.7115 67.5315 47.7001C67.5545 47.697 67.5753 47.686 67.5897 47.6694C67.5969 47.6622 67.6025 47.6538 67.6061 47.6445C67.6096 47.6353 67.6112 47.6256 67.6105 47.6158C67.609 47.5365 67.5842 47.459 67.5389 47.3916C67.4935 47.3242 67.4292 47.2693 67.3528 47.2327C67.2213 47.1762 67.0811 47.1387 66.9371 47.1217L66.9288 47.114ZM66.9288 48.5312C66.827 48.5494 66.7269 48.575 66.6295 48.6079C66.5215 48.6411 66.4252 48.7007 66.3509 48.7802C66.2823 48.871 66.2473 48.9799 66.2512 49.0905C66.2429 49.162 66.2537 49.2343 66.2826 49.3011C66.3116 49.3678 66.3579 49.427 66.4175 49.4735C66.5646 49.5526 66.7338 49.59 66.9038 49.5808H66.9288C67.0464 49.5741 67.1619 49.5481 67.2697 49.5042C67.3801 49.4586 67.4824 49.3979 67.5731 49.3241C67.5842 49.3151 67.5929 49.3038 67.5987 49.2912C67.6044 49.2786 67.6071 49.265 67.6064 49.2514V48.5696C67.6052 48.5484 67.5964 48.5282 67.5814 48.5121C67.5661 48.4977 67.5452 48.4894 67.5232 48.4891C67.3308 48.4966 67.1392 48.5157 66.9496 48.5466L66.9288 48.5312Z" fill="#ED1C24"/>
<path d="M74.557 49.7608C74.547 49.906 74.4789 50.0425 74.3658 50.1439C74.3077 50.2031 74.2373 50.2509 74.1587 50.2845C74.0802 50.318 73.995 50.3367 73.9085 50.3392H73.8503C73.7652 50.3391 73.681 50.3235 73.6025 50.2933C73.524 50.263 73.4528 50.2188 73.393 50.163C73.3301 50.1102 73.2802 50.0457 73.2465 49.9737C73.2128 49.9017 73.1961 49.8239 73.1976 49.7455V47.2634C73.1984 47.253 73.1966 47.2425 73.1924 47.2329C73.1882 47.2232 73.1816 47.2145 73.1732 47.2075C73.1648 47.2005 73.1548 47.1953 73.1439 47.1924C73.133 47.1895 73.1215 47.1889 73.1103 47.1906H72.1916C72.1815 47.1896 72.1712 47.1905 72.1614 47.1932C72.1516 47.196 72.1425 47.2005 72.1348 47.2066C72.127 47.2127 72.1206 47.2202 72.1161 47.2287C72.1116 47.2371 72.109 47.2464 72.1085 47.2558V48.6079C72.1156 48.8903 72.0749 49.172 71.9879 49.4429C71.9279 49.6399 71.8182 49.821 71.6678 49.9715C71.5291 50.0993 71.3596 50.1951 71.1731 50.2511C70.9724 50.3071 70.7635 50.3342 70.5537 50.3316H70.3292C70.2684 50.3312 70.2084 50.3195 70.1526 50.2971C70.0969 50.2747 70.0467 50.2421 70.005 50.2013C69.9182 50.1177 69.8691 50.0068 69.8678 49.8911V49.8566C69.8688 49.797 69.8833 49.7382 69.9105 49.6841C69.9377 49.63 69.977 49.5817 70.0258 49.5425C70.1051 49.4704 70.2098 49.4269 70.3209 49.4199C70.43 49.4195 70.5345 49.3796 70.6119 49.3089C70.7006 49.2277 70.7601 49.1234 70.7824 49.0101C70.8134 48.8702 70.8273 48.7276 70.8239 48.5849V46.9225C70.8229 46.8371 70.8412 46.7525 70.8777 46.674C70.9142 46.5955 70.9681 46.5249 71.036 46.4667C71.1008 46.4056 71.1785 46.3575 71.2643 46.3252C71.3501 46.2929 71.4421 46.2772 71.5348 46.279H73.8503C74.0382 46.2782 74.2189 46.3457 74.3533 46.4667C74.4198 46.5256 74.4725 46.5965 74.5083 46.6748C74.544 46.7532 74.562 46.8375 74.5612 46.9225V49.7455L74.557 49.7608Z" fill="#ED1C24"/>
</svg>
