<svg width="84" height="51" viewBox="0 0 84 51" fill="none" xmlns="http://www.w3.org/2000/svg">
<path fill-rule="evenodd" clip-rule="evenodd" d="M83.9332 48.8727C83.9312 48.9669 83.9076 49.0597 83.8639 49.1449C83.8202 49.23 83.7574 49.3057 83.6796 49.3669C83.5077 49.5005 83.2892 49.5726 83.0643 49.5699C82.8407 49.5727 82.6235 49.5005 82.4532 49.3669C82.3749 49.3062 82.3116 49.2306 82.2678 49.1453C82.2241 49.0601 82.2008 48.9671 82.1997 48.8727V0.923774C82.2008 0.829445 82.2241 0.736458 82.2678 0.651177C82.3116 0.565895 82.3749 0.49033 82.4532 0.429653C82.6235 0.295979 82.8407 0.223837 83.0643 0.226641C83.2892 0.22395 83.5077 0.296022 83.6796 0.429653C83.7574 0.490821 83.8202 0.566487 83.8639 0.65166C83.9076 0.736832 83.9312 0.829576 83.9332 0.923774V48.8727Z" fill="white"/>
<path fill-rule="evenodd" clip-rule="evenodd" d="M46.2452 15.0503H40.0096C39.8474 15.0489 39.6907 15.1043 39.5711 15.2052C39.4514 15.3062 39.3779 15.4452 39.3653 15.5942C39.0701 17.9767 39.0576 19.9877 38.696 21.6654C38.3897 23.2186 37.983 24.7535 37.478 26.2619C37.0332 27.4953 36.3722 29.3492 36.0479 29.9774C35.7237 30.6056 35.1583 31.4444 34.9588 31.8466C34.7592 32.2488 35.4161 32.1875 35.8442 32.1837H46.2369C46.4115 32.1797 46.5775 32.113 46.6994 31.9977C46.8214 31.8825 46.8896 31.7279 46.8896 31.567V15.6517C46.8885 15.4938 46.8205 15.3426 46.7002 15.2302C46.5798 15.1179 46.4165 15.0533 46.2452 15.0503ZM53.8693 39.6453C53.8682 39.8748 53.8147 40.1015 53.7123 40.3107C53.6099 40.5199 53.4608 40.7069 53.2748 40.8595C52.8839 41.1895 52.3729 41.3726 51.8427 41.3726C51.3125 41.3726 50.8015 41.1895 50.4106 40.8595C50.2248 40.701 50.0762 40.5092 49.9739 40.2957C49.8717 40.0823 49.818 39.8518 49.8161 39.6185C49.8161 38.4311 49.7829 37.3203 49.787 36.129C49.7866 36.0491 49.7686 35.97 49.7341 35.8966C49.6997 35.8232 49.6495 35.757 49.5866 35.7019C49.5238 35.6468 49.4494 35.604 49.3681 35.576C49.2869 35.5481 49.2003 35.5355 49.1136 35.5391H33.404C33.2306 35.5401 33.0646 35.6043 32.9423 35.7177C32.82 35.8311 32.7514 35.9845 32.7514 36.1443C32.7514 37.2934 32.7264 38.4426 32.7264 39.6185C32.7246 39.8518 32.6709 40.0823 32.5686 40.2957C32.4664 40.5092 32.3178 40.701 32.132 40.8595C31.741 41.1895 31.2301 41.3726 30.6999 41.3726C30.1697 41.3726 29.6587 41.1895 29.2677 40.8595C29.0812 40.7016 28.932 40.5099 28.8297 40.2963C28.7274 40.0827 28.6742 39.8519 28.6733 39.6185C28.6733 37.4811 28.6733 35.3476 28.6982 33.2064C28.658 32.9233 28.7336 32.6366 28.9102 32.402C29.1569 32.2554 29.4492 32.1881 29.7417 32.2105H30.0659C30.1811 32.2141 30.2952 32.1889 30.3962 32.1377C30.4972 32.0864 30.5813 32.011 30.6396 31.9194C31.1343 31.2337 31.4003 30.3872 31.8867 29.5637C32.4479 28.6329 32.9426 26.9973 33.4248 25.5916C33.9571 23.8369 34.3859 22.057 34.7093 20.2597C35.1251 18.3176 35.1251 15.9926 35.4576 13.2998C35.4576 13.2577 35.4576 13.2155 35.4576 13.1734C35.5242 12.7747 35.7463 12.412 36.0822 12.1532C36.4181 11.8944 36.8449 11.7574 37.2826 11.7677H49.3381C49.8218 11.7561 50.2911 11.9197 50.6455 12.2233C50.9999 12.5269 51.211 12.9464 51.2337 13.3917L51.2711 31.6359C51.2797 31.7934 51.3552 31.9415 51.4811 32.0483C51.6071 32.155 51.7735 32.2119 51.9446 32.2067H52.8342C53.1124 32.1828 53.3908 32.2507 53.6199 32.3982C53.7172 32.5087 53.7888 32.6364 53.8302 32.7735C53.8717 32.9105 53.8822 33.054 53.861 33.1949V39.6645L53.8693 39.6453Z" fill="white"/>
<path fill-rule="evenodd" clip-rule="evenodd" d="M75.9059 33.85C75.9012 34.0854 75.842 34.3172 75.7324 34.5299C75.6227 34.7426 75.465 34.9313 75.2698 35.0834C74.8404 35.4147 74.2981 35.5963 73.7379 35.5963C73.1778 35.5963 72.6355 35.4147 72.2061 35.0834C72.009 34.9311 71.8501 34.7414 71.7403 34.5271C71.6305 34.3129 71.5724 34.0792 71.57 33.8423V33.6661C71.57 33.5474 71.6033 33.3673 71.5077 33.2601C71.4121 33.1528 71.2292 33.2831 71.0712 33.398C70.8051 33.5857 70.5017 33.8078 70.1525 34.0645C69.6165 34.4605 69.0385 34.8057 68.4273 35.0948C67.7164 35.4476 66.9702 35.7362 66.1991 35.9567C65.2127 36.183 64.1972 36.2835 63.1811 36.2555C62.1392 36.2608 61.107 36.0719 60.1464 35.7C59.2041 35.3369 58.3471 34.8087 57.6231 34.1449C56.9019 33.4433 56.3369 32.6183 55.9602 31.7164C55.5412 30.7506 55.3294 29.719 55.3367 28.6789C55.2887 27.2051 55.6813 25.7476 56.4716 24.4655C57.3263 23.223 58.5783 22.2554 60.055 21.6961C61.6917 21.0379 63.4266 20.6105 65.2014 20.4282C66.7894 20.2393 68.4786 20.0899 70.2689 19.9801C70.6846 19.9533 71.2957 19.9379 71.4412 19.7503C71.5867 19.5626 71.5243 19.2178 71.5659 18.8156C71.5328 18.1466 71.3826 17.487 71.1211 16.8621C70.8342 16.3151 70.3787 15.8582 69.8116 15.5483C69.1918 15.2009 68.4988 14.979 67.7788 14.8971C66.9526 14.7892 66.119 14.7368 65.2846 14.7401C64.0928 14.7787 62.9073 14.9172 61.7427 15.1538C60.6286 15.3683 59.8097 15.5943 59.1446 15.7513C58.9156 15.8228 58.67 15.8366 58.4333 15.7915C58.1965 15.7464 57.9771 15.644 57.7977 15.4947C57.3818 15.2109 57.0874 14.8015 56.9658 14.338C56.8442 13.8745 56.9032 13.3864 57.1325 12.959C57.2242 12.7405 57.3732 12.5465 57.5661 12.3941C57.7591 12.2417 57.99 12.1357 58.2383 12.0856C58.8951 11.9401 59.6808 11.7869 60.8573 11.5838C62.3276 11.3449 63.8166 11.2168 65.3095 11.2008C66.8167 11.1781 68.3221 11.3065 69.7991 11.5838C70.9883 11.8274 72.1086 12.2985 73.0874 12.9666C74.0248 13.624 74.7516 14.5028 75.1908 15.51C75.6864 16.7221 75.9222 18.0112 75.8851 19.3059V33.8615L75.9059 33.85ZM71.5742 28.813V24.4616C71.5742 24.1514 71.6781 23.6036 71.437 23.3393C71.1959 23.075 70.7927 23.2014 70.2481 23.2168C69.7035 23.2321 68.6185 23.3585 67.6541 23.4504C66.358 23.5536 65.075 23.7664 63.8213 24.0863C62.7453 24.3657 61.7594 24.8824 60.9487 25.5916C60.5572 25.9646 60.2541 26.4085 60.0588 26.8951C59.8634 27.3818 59.78 27.9005 59.8138 28.4185C59.8138 29.7859 60.2296 30.8201 61.061 31.5134C61.8924 32.2067 63.1146 32.5629 64.7192 32.5629C66.0214 32.5804 67.3076 32.2973 68.4606 31.7394C69.3372 31.2942 70.1716 30.7817 70.9548 30.2073C71.166 30.0643 71.3347 29.8746 71.4453 29.6557C71.5434 29.3871 71.5844 29.1035 71.5659 28.8206L71.5742 28.813Z" fill="white"/>
<path d="M13.7577 30.5519L13.7827 30.5749C14.7663 30.768 15.7701 30.8605 16.7758 30.8507C17.7 30.8545 18.6218 30.7619 19.5236 30.5749C19.7481 30.5251 20.2136 30.3872 20.9079 30.1919L22.0802 29.8088C22.394 29.7203 22.7206 29.6763 23.0488 29.6786C23.4406 29.6742 23.8294 29.7436 24.1911 29.8826C24.5528 30.0215 24.8799 30.2272 25.1522 30.4868C25.4249 30.7372 25.6392 31.0362 25.7821 31.3655C25.9251 31.6948 25.9937 32.0475 25.9837 32.402C25.9954 32.7602 25.9277 33.1168 25.7847 33.45C25.6418 33.7833 25.4266 34.0862 25.1522 34.3402C24.8325 34.6104 24.4639 34.8269 24.0631 34.9799C23.3825 35.2008 22.6885 35.385 21.9846 35.5314C21.1035 35.7474 20.2096 35.9162 19.3074 36.037C18.1907 36.1669 17.0656 36.2258 15.9402 36.2132C15.1836 36.2132 14.4603 36.1826 13.7494 36.1251C9.95262 35.8417 6.972 34.7922 4.80755 32.9766C2.22463 30.8443 0.933167 27.8068 0.933167 23.864C0.933167 19.9915 2.1304 16.9157 4.53319 14.6136C6.77523 12.4609 9.85008 11.3118 13.7577 11.1663C14.0487 11.1663 14.3397 11.1663 14.6307 11.1663C18.5661 11.1663 21.5273 12.143 23.5144 14.0965C25.4543 16.0117 26.4382 18.7249 26.4659 22.2361V22.443C26.4755 22.7958 26.4046 23.1465 26.2578 23.4724C26.111 23.7984 25.8916 24.0923 25.6137 24.3352C25.3436 24.5909 25.0203 24.794 24.6632 24.9322C24.3061 25.0704 23.9225 25.1409 23.5351 25.1396H9.55492C9.47563 25.1377 9.39695 25.1527 9.32489 25.1832C9.25283 25.2138 9.18932 25.2591 9.13922 25.3158C9.09642 25.3504 9.06179 25.3927 9.03747 25.4401C9.01316 25.4876 8.99968 25.5391 8.99788 25.5915V25.6796C9.09258 26.4447 9.32731 27.1894 9.69211 27.8821C10.0794 28.5931 10.6593 29.2 11.3757 29.6441C12.0948 30.0912 12.903 30.4024 13.7536 30.5596L13.7577 30.5519ZM13.7577 15.893C13.1259 15.8834 12.4987 15.9938 11.9151 16.2172C11.3315 16.4406 10.8041 16.7722 10.3656 17.1915C9.57556 17.9974 9.08992 19.0174 8.98125 20.0988C8.95002 20.1794 8.94902 20.2674 8.97841 20.3486C9.00779 20.4298 9.06588 20.4997 9.14338 20.5469C9.25425 20.6314 9.39445 20.6763 9.5383 20.6733H18.0021C18.0804 20.6739 18.1579 20.6592 18.2296 20.6302C18.3013 20.6011 18.3654 20.5584 18.4178 20.5048C18.4935 20.4132 18.5357 20.3019 18.5383 20.1869V20.1217C18.4926 19.0377 18.0911 17.9919 17.3868 17.1225C16.6635 16.3143 15.5286 15.893 14.0113 15.893H13.7577Z" fill="white"/>
<path d="M32.7056 47.4173H31.9158C31.8955 47.4114 31.8737 47.4114 31.8534 47.4173C31.8446 47.4246 31.8375 47.4334 31.8325 47.4433C31.8274 47.4532 31.8247 47.4639 31.8243 47.4748V49.9339C31.8243 50.1015 31.752 50.2623 31.6234 50.3808C31.4948 50.4993 31.3203 50.5659 31.1384 50.5659C30.9565 50.5659 30.782 50.4993 30.6534 50.3808C30.5247 50.2623 30.4525 50.1015 30.4525 49.9339V47.4939C30.4533 47.4823 30.4511 47.4707 30.446 47.46C30.441 47.4494 30.4332 47.44 30.4234 47.4326C30.4071 47.4282 30.3898 47.4282 30.3735 47.4326H29.567C29.5052 47.4336 29.4437 47.4229 29.3865 47.4012C29.3293 47.3794 29.2776 47.3471 29.2345 47.3062C29.1887 47.2657 29.1525 47.2168 29.1282 47.1628C29.1039 47.1087 29.0919 47.0506 29.0931 46.9921C29.0924 46.9337 29.1046 46.8758 29.1289 46.8218C29.1532 46.7678 29.1891 46.7189 29.2345 46.678C29.2767 46.6356 29.3281 46.6018 29.3854 46.5787C29.4426 46.5556 29.5045 46.5438 29.567 46.544H32.7056C32.7694 46.5432 32.8327 46.5547 32.8914 46.5778C32.9502 46.6009 33.003 46.635 33.0465 46.678C33.1365 46.7616 33.1873 46.8744 33.1878 46.9921C33.188 47.0505 33.1756 47.1083 33.1514 47.1623C33.1271 47.2162 33.0915 47.2651 33.0465 47.3062C33.0019 47.3475 32.9488 47.38 32.8901 47.4017C32.8315 47.4235 32.7688 47.434 32.7056 47.4326V47.4173Z" fill="white"/>
<path d="M36.2308 49.7307C36.399 49.7627 36.5704 49.7781 36.7421 49.7767C36.9001 49.7769 37.0576 49.7615 37.2119 49.7307L37.4488 49.6618L37.6484 49.5966C37.7021 49.5807 37.7583 49.573 37.8147 49.5737C37.9481 49.5737 38.076 49.6225 38.1703 49.7094C38.2647 49.7963 38.3177 49.9142 38.3177 50.0371C38.3189 50.0988 38.3067 50.1602 38.2817 50.2174C38.2567 50.2747 38.2195 50.3267 38.1722 50.3704C38.1171 50.4159 38.0538 50.4522 37.9851 50.4776C37.8696 50.5163 37.7516 50.5483 37.6318 50.5734C37.4813 50.6099 37.3286 50.6381 37.1745 50.6577C36.9842 50.6795 36.7926 50.6898 36.6008 50.6883C36.4762 50.6942 36.3513 50.6942 36.2267 50.6883C35.6677 50.6734 35.1304 50.4859 34.701 50.1559C34.475 49.9564 34.2988 49.7139 34.1847 49.4454C34.0706 49.1768 34.0212 48.8886 34.04 48.6007C34.0239 48.3136 34.0695 48.0263 34.1744 47.7554C34.2793 47.4846 34.4413 47.2355 34.6511 47.0226C34.8584 46.8332 35.1043 46.6835 35.3748 46.5823C35.6452 46.481 35.9348 46.4302 36.2267 46.4327H36.3763C36.6533 46.4138 36.9314 46.4487 37.1928 46.5351C37.4542 46.6216 37.693 46.7576 37.8937 46.9345C38.2474 47.3221 38.4273 47.8194 38.3967 48.325V48.3594C38.3982 48.4195 38.386 48.4791 38.361 48.5345C38.3359 48.59 38.2985 48.6399 38.2512 48.6812C38.2049 48.7253 38.1493 48.7603 38.0878 48.784C38.0263 48.8078 37.9603 48.8197 37.8937 48.8191H35.5158C35.5023 48.8188 35.4888 48.8214 35.4765 48.8267C35.4643 48.832 35.4535 48.8399 35.4451 48.8497C35.4408 48.8568 35.438 48.8646 35.4368 48.8727C35.4531 49.0053 35.4924 49.1346 35.5532 49.2557C35.6197 49.3774 35.7201 49.4805 35.8442 49.5545C35.9697 49.6325 36.1112 49.686 36.2599 49.7116L36.2308 49.7307ZM36.2308 47.2256C36.1231 47.224 36.0161 47.2428 35.9167 47.2811C35.8173 47.3193 35.7275 47.3761 35.653 47.4478C35.518 47.586 35.4349 47.7606 35.416 47.9457C35.4141 47.9533 35.4141 47.9612 35.416 47.9687C35.417 47.9794 35.4204 47.9897 35.4262 47.999C35.4319 48.0082 35.4398 48.0162 35.4493 48.0224C35.458 48.0303 35.4684 48.0364 35.4799 48.0404C35.4914 48.0443 35.5036 48.046 35.5158 48.0453H36.9583C36.9725 48.0459 36.9867 48.0435 36.9997 48.0382C37.0126 48.0328 37.0241 48.0248 37.0331 48.0147C37.0389 47.9972 37.0389 47.9785 37.0331 47.9611C37.0257 47.7757 36.9576 47.5968 36.8378 47.4478C36.7667 47.3741 36.6788 47.3159 36.5802 47.2774C36.4817 47.239 36.3751 47.2213 36.2682 47.2256H36.2308Z" fill="white"/>
<path d="M43.8466 49.9876C43.8366 50.1327 43.7684 50.2692 43.6553 50.3706C43.5973 50.4298 43.5269 50.4777 43.4483 50.5112C43.3697 50.5448 43.2846 50.5634 43.1981 50.566H43.144C43.0583 50.5662 42.9734 50.5507 42.8942 50.5205C42.815 50.4902 42.743 50.4458 42.6826 50.3898C42.6197 50.337 42.5697 50.2724 42.536 50.2004C42.5023 50.1284 42.4857 50.0507 42.4872 49.9723V47.4902C42.488 47.4797 42.4862 47.4693 42.482 47.4596C42.4777 47.4499 42.4712 47.4412 42.4628 47.4342C42.4544 47.4272 42.4443 47.4221 42.4334 47.4191C42.4225 47.4162 42.4111 47.4156 42.3999 47.4174H41.477C41.4669 47.4163 41.4566 47.4172 41.4468 47.42C41.437 47.4227 41.428 47.4273 41.4202 47.4334C41.4124 47.4395 41.406 47.447 41.4015 47.4554C41.397 47.4639 41.3944 47.4731 41.3939 47.4825V48.8346C41.4031 49.1172 41.3624 49.3992 41.2733 49.6697C41.215 49.8673 41.1051 50.0487 40.9532 50.1983C40.8157 50.3255 40.6477 50.4213 40.4627 50.4779C40.2605 50.5337 40.0502 50.5608 39.8391 50.5583H39.6147C39.5539 50.558 39.4938 50.5463 39.438 50.5239C39.3823 50.5015 39.3321 50.4689 39.2904 50.4281C39.2036 50.3445 39.1546 50.2335 39.1532 50.1178V50.0834C39.1542 50.0237 39.1687 49.9649 39.1959 49.9108C39.2232 49.8567 39.2624 49.8085 39.3112 49.7693C39.3905 49.6972 39.4952 49.6537 39.6063 49.6467C39.7154 49.6463 39.8199 49.6064 39.8973 49.5356C39.9876 49.4555 40.0474 49.3507 40.0678 49.2368C40.0988 49.097 40.1127 48.9544 40.1094 48.8117V47.1493C40.1083 47.0639 40.1266 46.9792 40.1631 46.9007C40.1996 46.8222 40.2535 46.7516 40.3214 46.6934C40.3862 46.6324 40.4639 46.5842 40.5497 46.5519C40.6355 46.5197 40.7276 46.5039 40.8202 46.5058H43.1399C43.3264 46.5056 43.5056 46.573 43.6387 46.6934C43.7052 46.7524 43.758 46.8232 43.7937 46.9016C43.8294 46.98 43.8474 47.0642 43.8466 47.1493V49.9723V49.9876Z" fill="white"/>
<path d="M47.139 49.7307C47.3072 49.7627 47.4786 49.7781 47.6503 49.7766C47.8082 49.7769 47.9657 49.7615 48.1201 49.7307L48.3529 49.6617L48.5565 49.5966C48.6089 49.581 48.6636 49.5732 48.7187 49.5736C48.7851 49.5731 48.8509 49.5847 48.9124 49.6078C48.9739 49.6309 49.0299 49.6649 49.077 49.708C49.1242 49.7511 49.1616 49.8024 49.1871 49.8589C49.2127 49.9153 49.2258 49.9759 49.2258 50.0371C49.2271 50.0988 49.2149 50.1601 49.1899 50.2174C49.1649 50.2746 49.1276 50.3267 49.0803 50.3704C49.0252 50.4159 48.9619 50.4522 48.8933 50.4776C48.7778 50.5163 48.6598 50.5483 48.5399 50.5734C48.3895 50.6099 48.2368 50.638 48.0826 50.6576C47.8924 50.6795 47.7007 50.6897 47.509 50.6883C47.3843 50.6942 47.2595 50.6942 47.1348 50.6883C46.5745 50.6743 46.0356 50.4867 45.6051 50.1559C45.379 49.9563 45.2029 49.7139 45.0887 49.4453C44.9746 49.1768 44.9252 48.8886 44.9441 48.6007C44.9278 48.3132 44.9738 48.0256 45.0794 47.7546C45.185 47.4837 45.3482 47.2348 45.5593 47.0226C45.7666 46.8332 46.0125 46.6835 46.283 46.5822C46.5534 46.481 46.8429 46.4302 47.1348 46.4327H47.2845C47.5608 46.4138 47.8383 46.4488 48.099 46.5352C48.3597 46.6217 48.5978 46.7577 48.7977 46.9345C49.1529 47.3215 49.3343 47.8188 49.3048 48.3249V48.3594C49.3063 48.4194 49.2942 48.4791 49.2691 48.5345C49.2441 48.5899 49.2067 48.6399 49.1593 48.6811C49.1124 48.7256 49.0561 48.7607 48.9939 48.7845C48.9317 48.8082 48.8649 48.8199 48.7977 48.819H46.4198C46.4063 48.8187 46.3928 48.8214 46.3806 48.8267C46.3683 48.832 46.3575 48.8399 46.3492 48.8497C46.3418 48.8554 46.3359 48.8624 46.3316 48.8703C46.3273 48.8782 46.3248 48.8868 46.3242 48.8957C46.3405 49.0283 46.3798 49.1576 46.4406 49.2787C46.5059 49.3999 46.6049 49.503 46.7275 49.5775C46.8532 49.655 46.9946 49.7084 47.1432 49.7345L47.139 49.7307ZM47.139 47.2256C47.0313 47.2239 46.9243 47.2428 46.8249 47.281C46.7254 47.3193 46.6357 47.376 46.5612 47.4478C46.4262 47.586 46.3431 47.7606 46.3242 47.9457C46.3223 47.9533 46.3223 47.9611 46.3242 47.9687C46.3241 47.9795 46.3271 47.9902 46.333 47.9997C46.3388 48.0091 46.3473 48.0169 46.3575 48.0223C46.3662 48.0302 46.3766 48.0364 46.3881 48.0403C46.3995 48.0443 46.4118 48.046 46.424 48.0453H47.8665C47.8807 48.0459 47.8948 48.0435 47.9078 48.0381C47.9208 48.0328 47.9323 48.0248 47.9413 48.0147C47.9542 47.9993 47.9615 47.9805 47.9621 47.961C47.9546 47.7757 47.8865 47.5968 47.7667 47.4478C47.693 47.3748 47.6024 47.3179 47.5017 47.2815C47.401 47.245 47.2927 47.2299 47.1847 47.2371L47.139 47.2256Z" fill="white"/>
<path d="M54.2808 49.6732C54.3266 49.7493 54.3495 49.8352 54.3473 49.9222C54.3464 49.9814 54.3394 50.0404 54.3265 50.0984C54.3095 50.1788 54.2735 50.2548 54.2211 50.321C54.1686 50.3872 54.101 50.442 54.0231 50.4814L53.9732 50.5082C53.8764 50.5576 53.7678 50.5839 53.6573 50.5848C53.5982 50.5845 53.5395 50.5767 53.4827 50.5619C53.4001 50.5414 53.3229 50.5058 53.2557 50.4571C53.1886 50.4083 53.1328 50.3476 53.0919 50.2784C52.9672 50.0716 52.7344 49.6694 52.3935 49.0757C52.3796 49.0603 52.3606 49.0495 52.3395 49.045C52.3275 49.0406 52.314 49.0406 52.302 49.045L51.8614 49.4702C51.8553 49.485 51.8553 49.5014 51.8614 49.5162C51.8614 49.5583 51.8614 49.6311 51.8614 49.7383V49.9605C51.8514 50.1207 51.7775 50.2718 51.654 50.3849C51.5305 50.498 51.366 50.5651 51.1921 50.5734H51.1339C50.9565 50.5724 50.7865 50.5079 50.66 50.3933C50.5959 50.3379 50.545 50.2708 50.5107 50.1963C50.4763 50.1218 50.4592 50.0415 50.4604 49.9605V47.1337C50.4589 47.0521 50.4758 46.9711 50.5102 46.8959C50.5446 46.8207 50.5956 46.753 50.66 46.697C50.7222 46.6399 50.7962 46.5949 50.8776 46.5647C50.959 46.5344 51.0461 46.5195 51.1339 46.5208H51.1921C51.366 46.529 51.5305 46.5961 51.654 46.7092C51.7775 46.8223 51.8514 46.9735 51.8614 47.1337V47.7772C51.8614 47.8193 51.8614 47.8423 51.9071 47.8461C51.9274 47.8442 51.9464 47.8361 51.9612 47.8231L53.0586 46.697C53.1083 46.6396 53.1716 46.5936 53.2437 46.5624C53.3158 46.5311 53.3947 46.5156 53.4743 46.517H53.5159C53.6575 46.5141 53.7946 46.5622 53.8984 46.651L53.9358 46.6817C53.9949 46.7294 54.0422 46.7884 54.0745 46.8544C54.1068 46.9205 54.1233 46.9922 54.1228 47.0647V47.0992C54.1276 47.2207 54.0831 47.3394 53.9981 47.4324L53.3829 48.0376C53.3772 48.0538 53.3772 48.0712 53.3829 48.0874C53.3809 48.0988 53.3809 48.1105 53.3829 48.1219C53.9732 49.0642 54.2919 49.5749 54.339 49.6541L54.2808 49.6732Z" fill="white"/>
<path d="M57.2531 47.3406C57.1409 47.3406 57.012 47.3406 56.8707 47.3406C56.639 47.3462 56.4095 47.3824 56.1889 47.4479C56.1447 47.4531 56.1 47.4531 56.0559 47.4479C55.9908 47.4486 55.9263 47.4371 55.8663 47.414C55.8062 47.3909 55.7519 47.3568 55.7067 47.3138C55.6222 47.2355 55.5721 47.1312 55.566 47.0209C55.5599 46.9106 55.5981 46.8021 55.6734 46.7162C55.7455 46.6369 55.843 46.5806 55.952 46.5554L56.2138 46.5094C56.5144 46.4605 56.819 46.4361 57.1242 46.4366H57.2531C57.7835 46.4105 58.3103 46.5305 58.7663 46.7814C58.9395 46.9046 59.0774 47.065 59.168 47.2486C59.2585 47.4322 59.299 47.6334 59.2859 47.8347V49.93C59.2875 50.0141 59.2702 50.0977 59.2352 50.1755C59.2001 50.2533 59.1481 50.3235 59.0822 50.3819C59.0181 50.4427 58.9411 50.4907 58.856 50.523C58.7709 50.5553 58.6795 50.5711 58.5875 50.5696C58.4491 50.5718 58.3135 50.5329 58.2009 50.4585C58.0878 50.391 57.9994 50.2935 57.9473 50.1789C57.9464 50.1735 57.9433 50.1686 57.9387 50.1651C57.9341 50.1616 57.9284 50.1597 57.9224 50.1598L57.7104 50.3245C57.6167 50.3905 57.5165 50.4482 57.4111 50.4969C57.3698 50.5179 57.3267 50.5358 57.2822 50.5505C57.2076 50.5787 57.1312 50.603 57.0536 50.6233C56.8952 50.655 56.7333 50.6692 56.5714 50.6654C56.3936 50.6701 56.2167 50.6405 56.052 50.5785C55.8873 50.5165 55.7386 50.4234 55.6152 50.3053C55.4888 50.1869 55.3897 50.0461 55.324 49.8913C55.2582 49.7366 55.2272 49.5713 55.2328 49.4052C55.2199 49.1532 55.2863 48.9031 55.424 48.6851C55.5626 48.4936 55.7571 48.3422 55.9852 48.2484C56.262 48.1288 56.5584 48.0524 56.8624 48.0224L57.2781 47.9726C57.4693 47.9726 57.6647 47.9381 57.8725 47.9267C57.8846 47.9256 57.8963 47.9224 57.907 47.9171C57.9177 47.9118 57.9272 47.9047 57.9349 47.896C57.9421 47.8888 57.9476 47.8804 57.9512 47.8711C57.9548 47.8619 57.9563 47.8522 57.9557 47.8424C57.9541 47.7631 57.9293 47.6856 57.884 47.6182C57.8386 47.5508 57.7743 47.4959 57.6979 47.4593C57.5664 47.4028 57.4262 47.3653 57.2822 47.3483L57.2531 47.3406ZM57.2531 48.7578C57.1513 48.776 57.0512 48.8016 56.9538 48.8345C56.8453 48.8668 56.7489 48.9266 56.6753 49.0068C56.6049 49.0969 56.5697 49.2062 56.5755 49.3171C56.5672 49.3886 56.578 49.4609 56.607 49.5277C56.636 49.5944 56.6823 49.6536 56.7418 49.7001C56.8889 49.7792 57.0581 49.8166 57.2282 49.8074H57.2531C57.3708 49.8007 57.4862 49.7747 57.594 49.7308C57.7044 49.6852 57.8067 49.6245 57.8975 49.5507C57.9085 49.5417 57.9173 49.5304 57.923 49.5178C57.9288 49.5052 57.9314 49.4916 57.9307 49.478V48.7962C57.9295 48.775 57.9208 48.7548 57.9058 48.7387C57.8904 48.7243 57.8695 48.716 57.8476 48.7157C57.6552 48.7232 57.4635 48.7423 57.2739 48.7732L57.2531 48.7578Z" fill="white"/>
<path d="M60.558 47.1223C60.5562 47.0442 60.5723 46.9667 60.6053 46.8948C60.6382 46.8228 60.6873 46.7581 60.7492 46.7048C60.809 46.6491 60.8802 46.6048 60.9587 46.5746C61.0372 46.5443 61.1214 46.5287 61.2065 46.5286H61.2688C61.3554 46.5303 61.4405 46.549 61.5186 46.5833C61.5967 46.6177 61.666 46.6669 61.722 46.7278C61.8339 46.8296 61.9006 46.9661 61.909 47.1108V47.8539C61.9089 47.873 61.9165 47.8914 61.9304 47.9055C61.9442 47.9197 61.9633 47.9286 61.9838 47.9305H63.2559C63.2659 47.9316 63.276 47.9307 63.2855 47.928C63.2951 47.9252 63.3039 47.9205 63.3113 47.9144C63.3188 47.9082 63.3248 47.9007 63.3288 47.8922C63.3329 47.8838 63.335 47.8746 63.3349 47.8654V47.0993C63.3331 47.0207 63.3491 46.9426 63.3821 46.87C63.415 46.7974 63.4641 46.732 63.5261 46.678C63.6521 46.5684 63.8185 46.5068 63.9917 46.5056H64.0416C64.1288 46.5068 64.2148 46.5252 64.2936 46.5596C64.3725 46.5939 64.4425 46.6434 64.4989 46.7048C64.6116 46.8068 64.6809 46.9427 64.6942 47.0878V49.953C64.6799 50.0978 64.6107 50.2334 64.4989 50.336C64.4416 50.3961 64.3713 50.4445 64.2926 50.4782C64.2139 50.5118 64.1284 50.5299 64.0416 50.5314H63.9875C63.8146 50.5305 63.649 50.4672 63.5261 50.3552C63.464 50.302 63.4148 50.2373 63.3818 50.1653C63.3489 50.0934 63.3329 50.0158 63.3349 49.9377V48.8536C63.3318 48.8367 63.322 48.8215 63.3074 48.8109C63.2928 48.8002 63.2745 48.795 63.2559 48.7962H62.0088C61.9972 48.7958 61.9857 48.7977 61.975 48.8016C61.9642 48.8056 61.9545 48.8116 61.9464 48.8192C61.9377 48.8263 61.9309 48.8352 61.9266 48.8452C61.9222 48.8552 61.9205 48.8659 61.9215 48.8766V49.9377C61.9099 50.0916 61.8382 50.2364 61.7198 50.3456C61.6014 50.4547 61.4442 50.5207 61.2772 50.5314H61.2106C61.1256 50.5313 61.0414 50.5156 60.9629 50.4854C60.8844 50.4552 60.8132 50.4109 60.7534 50.3552C60.6912 50.302 60.642 50.2373 60.6091 50.1653C60.5761 50.0934 60.5601 50.0158 60.5621 49.9377V47.0725L60.558 47.1223Z" fill="white"/>
<path d="M67.8619 47.3402C67.7497 47.3402 67.6208 47.3402 67.4837 47.3402C67.2506 47.3456 67.0196 47.3817 66.7977 47.4475C66.7536 47.4527 66.7089 47.4527 66.6647 47.4475C66.5997 47.448 66.5353 47.4364 66.4753 47.4133C66.4152 47.3903 66.3609 47.3563 66.3155 47.3134C66.2311 47.2351 66.181 47.1308 66.1748 47.0205C66.1687 46.9102 66.2069 46.8018 66.2823 46.7159C66.3544 46.6365 66.4518 46.5802 66.5608 46.555L66.8227 46.509C67.1232 46.4601 67.4279 46.4358 67.7331 46.4363H67.8619C68.3924 46.4096 68.9193 46.5297 69.3751 46.781C69.5483 46.9043 69.6862 47.0647 69.7768 47.2483C69.8674 47.4318 69.9079 47.633 69.8948 47.8344V49.9296C69.8948 50.0139 69.8767 50.0974 69.8415 50.1753C69.8064 50.2531 69.7549 50.3238 69.6899 50.3833C69.625 50.4427 69.548 50.4897 69.4633 50.5217C69.3786 50.5536 69.2879 50.5698 69.1964 50.5693C69.0579 50.5715 68.9223 50.5325 68.8098 50.4582C68.6966 50.3906 68.6082 50.2932 68.5562 50.1786C68.5552 50.1731 68.5521 50.1682 68.5476 50.1647C68.543 50.1612 68.5372 50.1593 68.5312 50.1594H68.5104L68.2984 50.3241C68.2048 50.3901 68.1046 50.4478 67.9991 50.4965C67.9578 50.5175 67.9147 50.5354 67.8703 50.5501C67.7956 50.5784 67.7193 50.6027 67.6416 50.6229C67.4833 50.6547 67.3214 50.6688 67.1594 50.665C66.9816 50.6697 66.8047 50.6401 66.64 50.5781C66.4754 50.5161 66.3266 50.4231 66.2033 50.305C66.0768 50.1865 65.9778 50.0457 65.912 49.891C65.8463 49.7363 65.8153 49.5709 65.8208 49.4048C65.8101 49.153 65.8763 48.9035 66.0121 48.6847C66.1506 48.4932 66.3452 48.3418 66.5733 48.248C66.85 48.1284 67.1464 48.052 67.4504 48.022L67.8661 47.9722C68.0573 47.9722 68.2527 47.9378 68.4647 47.9263C68.4876 47.9232 68.5084 47.9123 68.5229 47.8956C68.5301 47.8884 68.5357 47.88 68.5392 47.8708C68.5428 47.8616 68.5443 47.8518 68.5437 47.842C68.5422 47.7627 68.5174 47.6852 68.472 47.6178C68.4267 47.5504 68.3624 47.4955 68.286 47.459C68.1545 47.4024 68.0142 47.3649 67.8703 47.3479L67.8619 47.3402ZM67.8619 48.7575C67.7601 48.7757 67.66 48.8013 67.5626 48.8341C67.4546 48.8674 67.3584 48.9269 67.2841 49.0065C67.2154 49.0973 67.1804 49.2061 67.1843 49.3167C67.176 49.3882 67.1868 49.4605 67.2158 49.5273C67.2448 49.594 67.2911 49.6533 67.3506 49.6998C67.4978 49.7789 67.667 49.8162 67.837 49.807H67.8619C67.9796 49.8003 68.095 49.7744 68.2028 49.7304C68.3132 49.6848 68.4156 49.6241 68.5063 49.5504C68.5174 49.5413 68.5261 49.53 68.5318 49.5174C68.5376 49.5048 68.5402 49.4912 68.5396 49.4776V48.7958C68.5384 48.7746 68.5296 48.7544 68.5146 48.7383C68.4993 48.7239 68.4783 48.7156 68.4564 48.7153C68.264 48.7228 68.0724 48.742 67.8827 48.7728L67.8619 48.7575Z" fill="white"/>
<path d="M75.4902 49.9876C75.4802 50.1327 75.4121 50.2692 75.299 50.3706C75.2409 50.4298 75.1705 50.4776 75.0919 50.5112C75.0133 50.5448 74.9282 50.5634 74.8417 50.566H74.7835C74.6984 50.5659 74.6142 50.5503 74.5357 50.52C74.4572 50.4898 74.386 50.4455 74.3262 50.3898C74.2633 50.337 74.2133 50.2724 74.1796 50.2004C74.146 50.1284 74.1293 50.0507 74.1308 49.9723V47.4902C74.1316 47.4797 74.1298 47.4693 74.1256 47.4596C74.1214 47.4499 74.1148 47.4412 74.1064 47.4342C74.098 47.4272 74.0879 47.422 74.0771 47.4191C74.0662 47.4162 74.0547 47.4156 74.0435 47.4174H73.1248C73.1146 47.4163 73.1044 47.4172 73.0946 47.42C73.0848 47.4227 73.0757 47.4273 73.0679 47.4334C73.0601 47.4395 73.0538 47.447 73.0493 47.4554C73.0448 47.4639 73.0422 47.4731 73.0417 47.4825V48.8346C73.0488 49.1171 73.0081 49.3988 72.9211 49.6697C72.8611 49.8666 72.7514 50.0478 72.601 50.1983C72.4623 50.326 72.2928 50.4218 72.1063 50.4779C71.9055 50.5338 71.6966 50.5609 71.4869 50.5583H71.2624C71.2016 50.558 71.1415 50.5463 71.0858 50.5239C71.0301 50.5015 70.9798 50.4689 70.9382 50.4281C70.8514 50.3445 70.8023 50.2335 70.801 50.1178V50.0834C70.8019 50.0237 70.8165 49.9649 70.8437 49.9108C70.8709 49.8567 70.9102 49.8085 70.959 49.7693C71.0383 49.6972 71.143 49.6537 71.2541 49.6467C71.3632 49.6463 71.4677 49.6064 71.5451 49.5356C71.6337 49.4544 71.6932 49.3501 71.7156 49.2368C71.7466 49.097 71.7605 48.9544 71.7571 48.8117V47.1493C71.756 47.0639 71.7743 46.9792 71.8109 46.9007C71.8474 46.8222 71.9013 46.7516 71.9691 46.6934C72.0339 46.6324 72.1116 46.5842 72.1974 46.5519C72.2832 46.5197 72.3753 46.5039 72.468 46.5058H74.7835C74.9714 46.505 75.1521 46.5724 75.2865 46.6934C75.353 46.7524 75.4057 46.8232 75.4415 46.9016C75.4772 46.98 75.4952 47.0642 75.4943 47.1493V49.9723L75.4902 49.9876Z" fill="white"/>
</svg>
