<svg width="100" height="21" viewBox="0 0 100 21" fill="none" xmlns="http://www.w3.org/2000/svg">
<path d="M88.938 2.54794C89.3048 1.8047 90.3646 1.8047 90.7315 2.54794L92.5346 6.20149C92.6803 6.49664 92.9618 6.70121 93.2875 6.74854L97.3195 7.33441C98.1397 7.45359 98.4672 8.46157 97.8737 9.0401L94.9561 11.884C94.7205 12.1137 94.6129 12.4447 94.6685 12.7691L95.3573 16.7848C95.4974 17.6017 94.64 18.2246 93.9063 17.8389L90.3001 15.943C90.0087 15.7899 89.6607 15.7899 89.3694 15.943L85.7631 17.8389C85.0295 18.2246 84.172 17.6017 84.3122 16.7848L85.0009 12.7691C85.0565 12.4447 84.949 12.1137 84.7133 11.884L81.7958 9.0401C81.2022 8.46157 81.5298 7.45359 82.35 7.33441L86.3819 6.74854C86.7076 6.70121 86.9892 6.49664 87.1349 6.20149L88.938 2.54794Z" fill="#FA7109"/>
<path d="M68.9814 2.54794C69.3483 1.8047 70.4081 1.8047 70.7749 2.54794L72.5781 6.20149C72.7237 6.49664 73.0053 6.70121 73.331 6.74854L77.3629 7.33441C78.1831 7.45359 78.5107 8.46157 77.9171 9.0401L74.9996 11.884C74.7639 12.1137 74.6564 12.4447 74.712 12.7691L75.4007 16.7848C75.5409 17.6017 74.6834 18.2246 73.9498 17.8389L70.3435 15.943C70.0522 15.7899 69.7042 15.7899 69.4128 15.943L65.8066 17.8389C65.0729 18.2246 64.2155 17.6017 64.3556 16.7848L65.0444 12.7691C65.1 12.4447 64.9924 12.1137 64.7568 11.884L61.8392 9.0401C61.2457 8.46157 61.5732 7.45359 62.3934 7.33441L66.4254 6.74854C66.7511 6.70121 67.0326 6.49664 67.1783 6.20149L68.9814 2.54794Z" fill="#FA7109"/>
<path d="M49.0249 2.54794C49.3917 1.8047 50.4516 1.8047 50.8184 2.54794L52.6215 6.20149C52.7672 6.49664 53.0487 6.70121 53.3744 6.74854L57.4064 7.33441C58.2266 7.45359 58.5541 8.46157 57.9606 9.0401L55.0431 11.884C54.8074 12.1137 54.6998 12.4447 54.7555 12.7691L55.4442 16.7848C55.5843 17.6017 54.7269 18.2246 53.9932 17.8389L50.387 15.943C50.0957 15.7899 49.7476 15.7899 49.4563 15.943L45.85 17.8389C45.1164 18.2246 44.259 17.6017 44.3991 16.7848L45.0878 12.7691C45.1434 12.4447 45.0359 12.1137 44.8002 11.884L41.8827 9.0401C41.2892 8.46157 41.6167 7.45359 42.4369 7.33441L46.4688 6.74854C46.7945 6.70121 47.0761 6.49664 47.2218 6.20149L49.0249 2.54794Z" fill="#FA7109"/>
<path d="M29.0684 2.54794C29.4352 1.8047 30.495 1.8047 30.8618 2.54794L32.665 6.20149C32.8106 6.49664 33.0922 6.70121 33.4179 6.74854L37.4498 7.33441C38.2701 7.45359 38.5976 8.46157 38.004 9.0401L35.0865 11.884C34.8508 12.1137 34.7433 12.4447 34.7989 12.7691L35.4877 16.7848C35.6278 17.6017 34.7703 18.2246 34.0367 17.8389L30.4304 15.943C30.1391 15.7899 29.7911 15.7899 29.4998 15.943L25.8935 17.8389C25.1599 18.2246 24.3024 17.6017 24.4425 16.7848L25.1313 12.7691C25.1869 12.4447 25.0794 12.1137 24.8437 11.884L21.9261 9.0401C21.3326 8.46157 21.6601 7.45359 22.4804 7.33441L26.5123 6.74854C26.838 6.70121 27.1196 6.49664 27.2652 6.20149L29.0684 2.54794Z" fill="#FA7109"/>
<path d="M9.11136 2.81698C9.47817 2.07374 10.538 2.07374 10.9048 2.81699L12.708 6.47054C12.8536 6.76568 13.1352 6.97025 13.4609 7.01758L17.4928 7.60345C18.3131 7.72264 18.6406 8.73061 18.047 9.30915L15.1295 12.153C14.8938 12.3828 14.7863 12.7138 14.8419 13.0382L15.5307 17.0538C15.6708 17.8707 14.8133 18.4937 14.0797 18.108L10.4734 16.2121C10.1821 16.0589 9.83407 16.0589 9.54275 16.2121L5.93648 18.108C5.20285 18.4937 4.34542 17.8707 4.48553 17.0538L5.17427 13.0382C5.22991 12.7138 5.12236 12.3828 4.88667 12.153L1.96914 9.30914C1.37562 8.73061 1.70313 7.72264 2.52335 7.60345L6.55528 7.01758C6.88099 6.97025 7.16256 6.76568 7.30822 6.47054L9.11136 2.81698Z" fill="#FA7109"/>
</svg>
