<svg width="41" height="40" viewBox="0 0 41 40" fill="none" xmlns="http://www.w3.org/2000/svg">
<path d="M6.7627 1H34.7612C37.5226 1 39.7612 3.23858 39.7612 6V33.9985C39.7612 36.7599 37.5226 38.9985 34.7612 38.9985H6.7627C4.00128 38.9985 1.7627 36.7599 1.7627 33.9985V6.00001C1.7627 3.23858 4.00127 1 6.7627 1Z" stroke="white" stroke-opacity="0.3" stroke-width="2"/>
<path d="M31.8991 13.5456C31.0995 13.8999 30.2415 14.1402 29.3401 14.2475C30.2605 13.6963 30.9651 12.8221 31.299 11.7836C30.4356 12.294 29.4827 12.6646 28.4672 12.8655C27.6541 11.9981 26.4975 11.4578 25.2146 11.4578C22.7534 11.4578 20.7579 13.4533 20.7579 15.9131C20.7579 16.262 20.7972 16.6027 20.8733 16.9286C17.17 16.7426 13.8862 14.9683 11.6883 12.2722C11.3042 12.9293 11.0856 13.6949 11.0856 14.5122C11.0856 16.0584 11.873 17.4227 13.0676 18.2209C12.3372 18.1965 11.6503 17.9956 11.049 17.6616V17.7173C11.049 19.8757 12.5857 21.6771 14.6233 22.0871C14.25 22.1876 13.8563 22.2432 13.4491 22.2432C13.1613 22.2432 12.883 22.2147 12.6101 22.1604C13.1775 23.932 14.8229 25.2202 16.7723 25.2556C15.2478 26.4502 13.3255 27.1602 11.2377 27.1602C10.8779 27.1602 10.5236 27.1385 10.1747 27.0991C12.1472 28.3657 14.4889 29.1041 17.0058 29.1041C25.2038 29.1041 29.685 22.3138 29.685 16.4249L29.67 15.848C30.5456 15.2235 31.3031 14.4389 31.8991 13.5456Z" fill="white"/>
</svg>
