<svg width="20" height="20" viewBox="0 0 20 20" fill="none" xmlns="http://www.w3.org/2000/svg">
<path d="M19.4259 1.73636C19.0337 1.64749 18.6479 1.91136 18.5639 2.3254L18.0364 4.92559C16.3567 1.89916 13.2736 0 9.89449 0C4.69061 0 0.45697 4.47132 0.45697 9.96747C0.45697 10.3909 0.781969 10.7342 1.18293 10.7342C1.58384 10.7342 1.9089 10.3909 1.9089 9.96747C1.9089 5.31693 5.4912 1.53346 9.89449 1.53346C12.7652 1.53346 15.3836 3.15297 16.8013 5.73164L14.381 5.18382C13.9889 5.09507 13.603 5.35888 13.5191 5.77292C13.4351 6.18695 13.6848 6.5946 14.0769 6.6833L18.2315 7.62362C18.302 7.63962 18.3737 7.64423 18.4444 7.63797C18.5621 7.62748 18.6768 7.58669 18.7779 7.51762C18.9396 7.40715 19.0531 7.23338 19.0934 7.03458L19.9838 2.64669C20.0677 2.23271 19.8179 1.82518 19.4259 1.73636Z" fill="#FA7109"/>
<path d="M18.6954 8.96249C18.2947 8.97647 17.9805 9.33089 17.9937 9.75406C18.0641 12.0057 17.3002 14.1514 15.8425 15.7962C14.3848 17.4408 12.408 18.3876 10.2761 18.4619C10.1873 18.465 10.0989 18.4665 10.0104 18.4665C7.2287 18.4664 4.66623 16.9406 3.21907 14.4685L5.74234 15.1831C6.1296 15.2927 6.52771 15.0501 6.63156 14.641C6.7354 14.232 6.50565 13.8116 6.11839 13.7018L2.01444 12.5397C1.82847 12.4871 1.63026 12.5146 1.46358 12.6162C1.29678 12.7178 1.17511 12.8853 1.12522 13.0817L0.0249515 17.4162C-0.0788901 17.8252 0.150862 18.2457 0.53812 18.3554C0.601133 18.3732 0.664321 18.3818 0.726579 18.3818C1.04705 18.3818 1.3404 18.1559 1.42734 17.8134L2.0458 15.3772C3.76627 18.2385 6.76101 20.0001 10.01 20C10.1144 20 10.2193 19.9982 10.3241 19.9945C12.8435 19.9066 15.1798 18.7878 16.9025 16.8441C18.6253 14.9004 19.5281 12.3644 19.4449 9.70346C19.4317 9.28034 19.096 8.94746 18.6954 8.96249Z" fill="#FA7109"/>
</svg>
