<svg width="41" height="41" viewBox="0 0 41 41" fill="none" xmlns="http://www.w3.org/2000/svg">
<path d="M6.93372 1.03467H34.9322C37.6936 1.03467 39.9322 3.27325 39.9322 6.03467V34.0331C39.9322 36.7946 37.6936 39.0331 34.9322 39.0331H6.93372C4.1723 39.0331 1.93372 36.7946 1.93372 34.0331V6.03468C1.93372 3.27325 4.17229 1.03467 6.93372 1.03467Z" stroke="white" stroke-opacity="0.3" stroke-width="2"/>
<path d="M28.339 11.2104H13.7599C10.8995 11.2104 8.58069 13.5292 8.58069 16.3896V23.6776C8.58069 26.538 10.8995 28.8568 13.7599 28.8568H28.339C31.1994 28.8568 33.5182 26.538 33.5182 23.6776V16.3896C33.5182 13.5292 31.1994 11.2104 28.339 11.2104ZM24.8363 20.3882L18.0172 23.6405C17.8355 23.7272 17.6256 23.5947 17.6256 23.3934V16.6855C17.6256 16.4814 17.841 16.3491 18.0231 16.4414L24.8422 19.8969C25.045 19.9997 25.0414 20.2904 24.8363 20.3882Z" fill="white"/>
</svg>
